<?xml version="1.0" encoding="UTF-8"?>
<svg width="446px" height="349px" viewBox="0 0 446 349" version="1.1" xmlns="http://www.w3.org/2000/svg" xmlns:xlink="http://www.w3.org/1999/xlink">
    <!-- Generator: Sketch 45.2 (43514) - http://www.bohemiancoding.com/sketch -->
    <title>tyrion-lannister</title>
    <desc>Created with Sketch.</desc>
    <defs></defs>
    <g id="Page-1" stroke="none" stroke-width="1" fill="none" fill-rule="evenodd">
        <g id="tyrion-lannister" fill-rule="nonzero">
            <g id="bg" transform="translate(41.000000, 215.000000)">
                <g id="color" transform="translate(2.000000, 2.000000)">
                    <path d="M357.08,119.91 C358.197278,121.036634 358.197278,122.853366 357.08,123.98 L353.94,127.12 C352.813366,128.237278 350.996634,128.237278 349.87,127.12 L336.81,114.12 C335.692722,112.993366 335.692722,111.176634 336.81,110.05 L339.95,106.9 C341.078858,105.788135 342.891142,105.788135 344.02,106.9 L357.08,119.91 Z" id="Shape" fill="#FFFADB"></path>
                    <path d="M340.24,120.65 L340.24,125.1 C340.234514,126.682779 338.952779,127.964514 337.37,127.97 L318.9,127.97 C317.656665,127.960377 316.559882,127.153919 316.18,125.97 C316.302279,125.650932 316.363345,125.31168 316.36,124.97 L316.36,120.53 C316.363841,120.212836 316.309615,119.897645 316.2,119.6 C316.619768,118.470111 317.69468,117.717672 318.9,117.71 L337.37,117.71 C338.141744,117.715225 338.879339,118.02891 339.418443,118.581163 C339.957547,119.133416 340.25337,119.878354 340.24,120.65 Z" id="Shape" fill="#FFFADB"></path>
                    <path d="M328.56,110.42 L328.56,114.91 C328.549044,116.494395 327.264424,117.774555 325.68,117.78 L313.84,117.78 L313.48,117.78 L306.8,117.78 C305.386392,117.576696 304.335291,116.368143 304.33,114.94 L304.33,110.49 C304.338119,109.126091 305.295573,107.952169 306.63,107.67 L320.45,107.67 C320.644902,107.670387 320.839304,107.650276 321.03,107.61 L325.68,107.61 C327.241492,107.614805 328.516783,108.859099 328.56,110.42 Z" id="Shape" fill="#FFFADB"></path>
                    <path d="M323.33,100.28 L323.33,104.72 C323.321881,106.083909 322.364427,107.257831 321.03,107.54 L307.21,107.54 C307.015098,107.539613 306.820696,107.559724 306.63,107.6 L301.98,107.6 C300.395605,107.589044 299.115445,106.304424 299.11,104.72 L299.11,100.28 C299.10999,98.693317 300.393327,97.4055093 301.98,97.4 L320.45,97.4 C322.038302,97.4054864 323.324514,98.691698 323.33,100.28 Z" id="Shape" fill="#FFFADB"></path>
                    <path d="M307.21,107.54 L321.03,107.54 C320.839304,107.580276 320.644902,107.600387 320.45,107.6 L306.63,107.6 C306.820696,107.559724 307.015098,107.539613 307.21,107.54 L307.21,107.54 Z" id="Shape" fill="#FFFADB"></path>
                    <path d="M316.36,120.59 L316.36,125.03 C316.363345,125.37168 316.302279,125.710932 316.18,126.03 C316.071151,125.735618 316.01693,125.423846 316.02,125.11 L316.02,120.66 C316.016655,120.31832 316.077721,119.979068 316.2,119.66 C316.309615,119.957645 316.363841,120.272836 316.36,120.59 Z" id="Shape" fill="#FFFADB"></path>
                    <path d="M316.2,119.66 C316.077721,119.979068 316.016655,120.31832 316.02,120.66 L316.02,125.11 C316.01693,125.423846 316.071151,125.735618 316.18,126.03 C315.760232,127.159889 314.68532,127.912328 313.48,127.92 L295.01,127.92 C293.421698,127.914514 292.135486,126.628302 292.13,125.04 L292.13,120.6 C292.135486,119.011698 293.421698,117.725486 295.01,117.72 L306.8,117.72 C306.936473,117.730277 307.073527,117.730277 307.21,117.72 L313.84,117.72 C314.934086,117.859472 315.851455,118.613581 316.2,119.66 L316.2,119.66 Z" id="Shape" fill="#FFFADB"></path>
                    <path d="M313.84,117.74 L307.21,117.74 C307.073527,117.750277 306.936473,117.750277 306.8,117.74 L313.48,117.74 L313.84,117.74 Z" id="Shape" fill="#FFFADB"></path>
                    <path d="M87.17,63.41 L87.17,69.09 C87.1700041,72.7698376 84.1898334,75.754483 80.51,75.76 L79.33,75.76 L79.33,56.76 L80.51,56.76 C84.1820395,56.7654888 87.1589935,59.7379729 87.17,63.41 Z" id="Shape" fill="#EDEDED"></path>
                    <path d="M79.33,110.21 L79.33,122.21 C79.33,125.341455 76.7914545,127.88 73.66,127.88 L71.66,127.88 C70.1571404,127.880002 68.7159798,127.28231 67.6542359,126.21869 C66.5924921,125.155071 65.9973448,123.712857 66,122.21 L66,110.21 L79.33,110.21 Z" id="Shape" fill="#EDEDED"></path>
                    <polygon id="Shape" fill="#FAEEE3" points="79.33 75.76 79.33 110.21 66 110.21 66 75.76 66 56.74 66 20.33 66 8.72 79.33 8.72 79.33 20.33 79.33 56.74"></polygon>
                    <path d="M79.33,6.29 L79.33,8.72 L66,8.72 L66,6.29 C65.9973393,4.78806059 66.5928046,3.34687103 67.6548378,2.28483782 C68.716871,1.22280461 70.1580606,0.627339339 71.66,0.63 L73.66,0.63 C75.1628572,0.627344771 76.6050707,1.2224921 77.6686904,2.28423593 C78.7323101,3.34597976 79.3300023,4.78714045 79.33,6.29 Z" id="Shape" fill="#EDEDED"></path>
                    <path d="M66,56.74 L66,75.74 L64.82,75.74 C63.051006,75.74 61.3544654,75.0372699 60.1035978,73.7864022 C58.8527301,72.5355346 58.15,70.838994 58.15,69.07 L58.15,63.41 C58.15,61.641006 58.8527301,59.9444654 60.1035978,58.6935978 C61.3544654,57.4427301 63.051006,56.74 64.82,56.74 L66,56.74 Z" id="Shape" fill="#EDEDED"></path>
                    <path d="M66,8.72 L66,20.33 C43,20.33 18.15,30.74 12,51.33 C11.286562,53.8318486 9.01147012,55.5656396 6.41,55.59 L6.31,55.59 C4.56282083,55.5842612 2.9106523,54.7938917 1.80976389,53.437163 C0.708875479,52.0804343 0.275749589,50.3008988 0.63,48.59 C5.39,26.03 32.85,8.72 66,8.72 Z" id="Shape" fill="#FAEEE3"></path>
                    <polygon id="Shape" fill="#EDEDED" points="24.25 113.65 24.25 124.9 12.75 119.28"></polygon>
                    <path d="M144.74,48.59 C145.098124,50.3014116 144.666463,52.0831033 143.564761,53.4408347 C142.463059,54.7985662 140.808479,55.5879457 139.06,55.59 L138.97,55.59 C136.367396,55.5689501 134.090547,53.8338198 133.38,51.33 C127.21,30.71 102.38,20.33 79.38,20.33 L79.38,8.72 C112.48,8.72 139.93,26.03 144.74,48.59 Z" id="Shape" fill="#FAEEE3"></path>
                </g>
                <g id="shadows" transform="translate(2.000000, 4.000000)">
                    <polygon id="Shape" fill="#FFFFFF" opacity="0.7" points="299.11 100.47 323.33 100.47 323.33 95.69 299.63 95.69"></polygon>
                    <path d="M292.53,124.46 C302.15,124.86 310.58,123.46 315.02,116.16 L328.56,115.77 L328.56,115.77 C328.56,118.189007 330.520993,120.15 332.94,120.15 L340.24,120.15 L340.24,125.3 L292.53,124.46 Z" id="Shape" fill="#1E1E1E" opacity="0.06"></path>
                    <path d="M309.97,106.21 L309.97,114.91 L324.62,114.91 C322.49,113.07 321.18,110.02 320.39,106.21 L309.39,106.21" id="Shape" fill="#1E1E1E" opacity="0.06"></path>
                    <path d="M292.13,120.54 L299.4,120.54 C302.028875,120.54 304.16,118.408875 304.16,115.78 L293.9,115.78 L292.13,120.54 Z" id="Shape" fill="#FFFFFF" opacity="0.7"></path>
                    <path d="M323.33,106.21 C324.015315,108.370391 325.281466,110.300752 326.99,111.79 L328.56,107.29 L323.33,106.21 Z" id="Shape" fill="#FFFFFF" opacity="0.7"></path>
                    <path d="M338.67,113.91 L342.88,109.7 C346.81,110.82 351.18,113.86 355.75,117.7 L342.57,104.07 L336.04,109.45 L338.67,113.91 Z" id="Shape" fill="#FFFFFF" opacity="0.7"></path>
                    <polygon id="Shape" fill="#1E1E1E" opacity="0.06" points="342.27 117.04 345.87 113.94 355.74 123.33 351.85 125.97"></polygon>
                    <path d="M74.93,0.09 C75.15,4.18 71.7,4.7 67.74,4.72 L67.99,6.72 L79.33,6.46 L78.49,0.59 L74.93,0.09 Z" id="Shape" fill="#1E1E1E" opacity="0.06"></path>
                    <ellipse id="Oval" fill="#FFFFFF" opacity="0.7" transform="translate(70.718914, 2.027012) rotate(-15.440000) translate(-70.718914, -2.027012) " cx="70.7189137" cy="2.02701154" rx="1.58" ry="1.39"></ellipse>
                    <path d="M58.62,69.54 C63.03,69.54 64.89,64.07 65.62,55.96 L65.62,74.21 L58.62,69.54 Z" id="Shape" fill="#1E1E1E" opacity="0.06"></path>
                    <path d="M80.07,61.13 C82.8416365,61.5633867 85.3632182,62.9839961 87.17,65.13 C87.1,70.93 84.8,73.63 80.99,74.26 L80.07,61.13 Z" id="Shape" fill="#1E1E1E" opacity="0.06"></path>
                    <path d="M66,117.29 C72.19,117.49 75.79,114.9 75.58,108.21 L78.83,108.63 L78.83,120.3 L77.16,125.91 L67.33,125.13 L65.58,120.13 L66,117.29 Z" id="Shape" fill="#1E1E1E" opacity="0.06"></path>
                    <path d="M66.74,68.47 L66.74,68.47 C71.0643896,68.47 74.57,71.9756104 74.57,76.3 L74.57,94.12 C74.57,98.4443896 71.0643896,101.95 66.74,101.95 L66.74,101.95 L66.74,108.2 L78.82,108.2 L78.82,6.46 L76.61,6.46 C76.46,31.46 75.86,55.59 66.74,63.21 L66.74,68.47 Z" id="Shape" fill="#1E1E1E" opacity="0.06"></path>
                    <path d="M66.74,116.29 C70.4933333,115.623333 72.7433333,112.846667 73.49,107.96 C73.49,107.96 65.68,108.21 66,108.21 C66.32,108.21 66.74,116.29 66.74,116.29 Z" id="Shape" fill="#FFFFFF" opacity="0.7"></path>
                    <path d="M59.68,67.12 L59.68,67.12 C60.5415642,67.12 61.24,66.4215642 61.24,65.56 L61.24,60.91 C61.76,59.36 63.18,58.18 64.8,57.08 L63.21,55.01 L58.74,59.18 L59.68,67.12 Z" id="Shape" fill="#FFFFFF" opacity="0.7"></path>
                    <path d="M80.66,58.46 C82.5,58.21 84.56,59.15 86.66,60.38 L84.54,55.3 L80.66,54.75 L80.66,58.46 Z" id="Shape" fill="#FFFFFF" opacity="0.7"></path>
                    <path d="M4.57,52.46 C8.99,33.21 23.97,21.06 43.22,15.51 C46.3948612,14.5876796 48.576498,11.676112 48.57,8.37 L48.57,8.37 C24.03,13.02 6.87,25.26 0.57,48.64 L4.57,52.46 Z" id="Shape" fill="#FFFFFF" opacity="0.5"></path>
                    <path d="M56.83,7.17 C57.35,13.0633333 54.6,17.4466667 48.58,20.32 L65.58,18.32 L66.01,6.71 L56.83,7.17 Z" id="Shape" fill="#1E1E1E" opacity="0.06"></path>
                    <polygon id="Shape" fill="#FFFFFF" opacity="0.7" points="25.24 117.27 12.75 117.27 23.82 112.13"></polygon>
                    <polygon id="Shape" fill="#1E1E1E" opacity="0.06" points="85.74 6.72 85.74 18.6 80.07 18.6 80.07 7.63"></polygon>
                    <path d="M88.74,7.2 L88.74,7.82 C88.752837,10.5772573 90.72762,12.9343919 93.44,13.43 C102.097759,15.0117735 110.423246,18.055209 118.06,22.43 C119.368443,23.1915645 120.926103,23.4013138 122.389387,23.0129807 C123.852671,22.6246476 125.101355,21.6701378 125.86,20.36 L125.86,20.36 C115.17,12.86 102.67,8.72 88.74,7.2 Z" id="Shape" fill="#FFFFFF" opacity="0.5"></path>
                    <path d="M113.12,26.37 C120.12,28.04 126.77,28.87 131.48,24.79 C139.03,31.24 143.69,39.36 144.53,49.67 L136.99,54.05 C131.35,41.12 123.58,31.6 113.12,26.37 Z" id="Shape" fill="#1E1E1E" opacity="0.06"></path>
                    <path d="M70.74,11.59 C71.74,9.22 73.95,7.97 76.61,7.2 L66,6.72 L66,43.34 L66,43.34 C67.2571262,43.34 68.4627637,42.8406086 69.3516861,41.9516861 C70.2406086,41.0627637 70.74,39.8571262 70.74,38.6 L70.74,11.59 Z" id="Shape" fill="#FFFFFF" opacity="0.5"></path>
                </g>
                <g id="lines" fill="#CED8E0">
                    <path d="M76.57,93.46 C76.0177153,93.46 75.57,93.9077153 75.57,94.46 L75.57,102.46 C75.57,103.012285 76.0177153,103.46 76.57,103.46 C77.1222847,103.46 77.57,103.012285 77.57,102.46 L77.57,94.46 C77.57,93.9077153 77.1222847,93.46 76.57,93.46 Z" id="Shape"></path>
                    <path d="M73.24,81.29 C72.6877153,81.29 72.24,81.7377153 72.24,82.29 L72.24,86.83 C72.24,87.3822847 72.6877153,87.83 73.24,87.83 C73.7922847,87.83 74.24,87.3822847 74.24,86.83 L74.24,82.29 C74.24,81.7377153 73.7922847,81.29 73.24,81.29 Z" id="Shape"></path>
                    <path d="M75.57,50.46 C75.57,51.0122847 76.0177153,51.46 76.57,51.46 C77.1222847,51.46 77.57,51.0122847 77.57,50.46 L77.57,40.79 C77.57,40.2377153 77.1222847,39.79 76.57,39.79 C76.0177153,39.79 75.57,40.2377153 75.57,40.79 L75.57,50.46 Z" id="Shape"></path>
                    <path d="M74.66,22.29 C75.2122847,22.29 75.66,21.8422847 75.66,21.29 L75.66,18.14 C75.66,17.5877153 75.2122847,17.14 74.66,17.14 C74.1077153,17.14 73.66,17.5877153 73.66,18.14 L73.66,21.29 C73.66,21.8422847 74.1077153,22.29 74.66,22.29 Z" id="Shape"></path>
                    <path d="M77.28,54.09 C77.0455559,53.8522712 76.7079318,53.7472326 76.38,53.81 L76.19,53.87 C76.1301105,53.8934709 76.0730787,53.9236642 76.02,53.96 C75.9635435,53.9952688 75.912935,54.0391295 75.87,54.09 C75.7737528,54.1789536 75.6985896,54.2882819 75.65,54.41 C75.598759,54.5302223 75.57158,54.6593227 75.57,54.79 C75.5711094,55.0572459 75.6791444,55.3129286 75.87,55.5 C76.0562606,55.6847442 76.3076601,55.7888954 76.57,55.79 C77.1222847,55.79 77.57,55.3422847 77.57,54.79 C77.5733801,54.6588235 77.5459814,54.5286794 77.49,54.41 C77.4412569,54.290807 77.369951,54.1821504 77.28,54.09 Z" id="Shape"></path>
                    <path d="M73.07,63.91 C73.6222847,63.91 74.07,63.4622847 74.07,62.91 L74.07,58.24 C74.07,57.6877153 73.6222847,57.24 73.07,57.24 C72.5177153,57.24 72.07,57.6877153 72.07,58.24 L72.07,62.91 C72.07,63.4622847 72.5177153,63.91 73.07,63.91 Z" id="Shape"></path>
                    <path d="M83.33,8.76 L83.33,8.3 C83.3244909,4.06626001 79.89374,0.635509103 75.66,0.63 L73.66,0.63 C69.42626,0.635509103 65.9955091,4.06626001 65.99,8.3 L65.99,8.76 C32.99,9.43 5.64,26.64 0.65,50.18 C-0.342175334,54.3761562 2.23590272,58.5871001 6.42429862,59.6115405 C10.6126945,60.6359809 14.8433551,58.0903875 15.9,53.91 C16.05,53.4 16.23,52.91 16.41,52.39 L58.16,68.26 L58.16,71.07 C58.1647631,75.5349319 61.5560221,79.2679121 66,79.7 L66,119.26 L28.25,119.26 L28.25,115.63 C28.2513842,114.938996 27.895973,114.296229 27.3100019,113.929997 C26.7240308,113.563765 25.9905203,113.525956 25.37,113.83 L13.87,119.46 C13.185628,119.796287 12.7520289,120.492469 12.7520289,121.255 C12.7520289,122.017531 13.185628,122.713713 13.87,123.05 L25.37,128.68 C25.9905203,128.984044 26.7240308,128.946235 27.3100019,128.580003 C27.895973,128.213771 28.2513842,127.571004 28.25,126.88 L28.25,123.25 L66,123.25 L66,124.25 C66.0055091,128.48374 69.43626,131.914491 73.67,131.92 L75.67,131.92 C79.6159793,131.91317 82.9146558,128.917125 83.3,124.99 L88.19,129.88 C88.9714829,130.661483 90.238517,130.661483 91.0199999,129.88 C91.8014828,129.098517 91.8014828,127.831483 91.02,127.05 L87.25,123.28 L90.32,123.28 L96.92,129.88 C97.7014829,130.661483 98.968517,130.661483 99.7499999,129.88 C100.531483,129.098517 100.531483,127.831483 99.75,127.05 L95.98,123.28 L101.67,123.28 C102.774569,123.28 103.67,122.384569 103.67,121.28 C103.67,120.175431 102.774569,119.28 101.67,119.28 L96,119.28 L99.76,115.52 C100.541483,114.738517 100.541483,113.471483 99.7599999,112.69 C98.978517,111.908517 97.7114829,111.908517 96.93,112.69 L90.34,119.28 L87.27,119.28 L91.03,115.52 C91.8114828,114.738517 91.8114828,113.471483 91.0299999,112.69 C90.248517,111.908517 88.9814829,111.908517 88.2,112.69 L83.35,117.54 L83.35,79.72 C87.7939779,79.2879121 91.1852369,75.5549319 91.19,71.09 L91.19,68.28 L132.94,52.41 C133.12,52.91 133.29,53.41 133.45,53.93 C134.422332,57.315243 137.527943,59.6403651 141.05,59.62 C143.406447,59.6168788 145.635846,58.5513148 147.118297,56.719596 C148.600747,54.8878772 149.178167,52.48533 148.69,50.18 C143.68,26.63 116.37,9.43 83.33,8.76 Z M24.25,123.7 L19.3,121.28 L24.25,118.86 L24.25,123.7 Z M134.58,46.3 L142.04,43.19 C142.54,44.19 142.98,45.26 143.37,46.31 L135.93,49.14 C135.523333,48.1666667 135.073333,47.22 134.58,46.3 Z M141.11,41.41 L133.59,44.55 C123.85,28.55 102.2,20.87 83.34,20.36 L83.34,12.76 C109.21,13.33 131.92,24.91 141.1,41.41 L141.11,41.41 Z M79.34,58.75 L79.34,66.26 L70.01,66.26 L70.01,12.72 L79.34,12.72 L79.34,58.75 Z M70.01,77.75 L70.01,70.24 L79.34,70.24 L79.34,110.24 L70.01,110.24 L70.01,77.75 Z M73.68,4.62 L75.68,4.62 C77.706885,4.62 79.35,6.26311497 79.35,8.29 L79.35,8.72 L70.02,8.72 L70.02,8.29 C70.0254133,6.27867287 71.6487327,4.64643414 73.66,4.63 L73.68,4.62 Z M66.01,12.75 L66.01,20.35 C47.15,20.86 25.5,28.54 15.76,44.54 L8.24,41.4 C17.41,24.91 40.11,13.33 66,12.76 L66.01,12.75 Z M7.3,43.18 L14.76,46.29 C14.2666667,47.21 13.8133333,48.1533333 13.4,49.12 L5.97,46.29 C6.35,45.25 6.74,44.21 7.29,43.18 L7.3,43.18 Z M12.08,52.78 C11.603105,54.4640491 10.0602287,55.6222294 8.31,55.61 C7.15999328,55.6084718 6.07220493,55.0875869 5.35001917,54.1926201 C4.62783341,53.2976533 4.34852754,52.1243704 4.59,51 C4.79,50.05 5.05,49.12 5.33,48.19 L12.68,50.98 C12.45,51.58 12.25,52.18 12.06,52.79 L12.08,52.78 Z M17.15,50.55 C24.62,33.17 46.81,24.9 66.01,24.36 L66.01,56.78 C61.5698266,57.2117094 58.1798994,60.9388998 58.17,65.4 L58.17,66.14 L17.15,50.55 Z M62.15,71.09 L62.15,65.41 C62.1527308,63.1531174 63.7690467,61.2211148 65.99,60.82 L65.99,75.69 C63.7693112,75.2839406 62.1570191,73.3475061 62.16,71.09 L62.15,71.09 Z M69.99,114.21 L79.32,114.21 L79.32,119.28 L69.99,119.28 L69.99,114.21 Z M75.66,127.91 L73.66,127.91 C71.633115,127.91 69.99,126.266885 69.99,124.24 L69.99,123.24 L79.32,123.24 L79.32,124.24 C79.3200075,126.262986 77.6829787,127.904488 75.66,127.91 L75.66,127.91 Z M87.17,71.09 C87.1672692,73.3468826 85.5509533,75.2788852 83.33,75.68 L83.33,60.82 C85.5509533,61.2211148 87.1672692,63.1531174 87.17,65.41 L87.17,71.09 Z M91.17,66.14 L91.17,65.4 C91.1601006,60.9388998 87.7701734,57.2117094 83.33,56.78 L83.33,24.36 C102.53,24.9 124.73,33.18 132.2,50.55 L91.17,66.14 Z M143.99,54.2 C143.071034,55.3150054 141.608615,55.827007 140.194842,55.5287073 C138.781069,55.2304075 137.650163,54.1712258 137.26,52.78 C137.08,52.17 136.87,51.58 136.66,50.99 L144.01,48.2 C144.29,49.13 144.55,50.06 144.75,51.01 C144.993826,52.1367141 144.714401,53.3132397 143.99,54.21 L143.99,54.2 Z" id="Shape"></path>
                    <path d="M360.49,120.51 L347.43,107.45 C345.524397,105.545149 342.435603,105.545149 340.53,107.45 L337.39,110.59 C335.485149,112.495603 335.485149,115.584397 337.39,117.49 L337.67,117.77 L332.46,117.77 C332.518593,117.470178 332.548727,117.165491 332.55,116.86 L332.55,112.42 C332.55,109.72485 330.36515,107.54 327.67,107.54 L327.24,107.54 C327.289925,107.269437 327.316688,106.99511 327.32,106.72 L327.32,102.28 C327.32,99.5848504 325.13515,97.4 322.44,97.4 L303.98,97.4 C301.28485,97.4 299.1,99.5848504 299.1,102.28 L299.1,106.72 C299.1,109.41515 301.28485,111.6 303.98,111.6 L304.41,111.6 C304.360075,111.870563 304.333312,112.14489 304.33,112.42 L304.33,116.91 C304.335459,117.192088 304.365574,117.473158 304.42,117.75 L297.01,117.75 C294.31485,117.75 292.13,119.93485 292.13,122.63 L292.13,127.07 C292.13,129.76515 294.31485,131.95 297.01,131.95 L315.48,131.95 C316.425786,131.948957 317.350542,131.670835 318.14,131.15 C318.951189,131.710563 319.913969,132.01056 320.9,132.01 L339.37,132.01 C342.06515,132.01 344.25,129.82515 344.25,127.13 L344.25,124.38 L350.46,130.59 C352.365603,132.494851 355.454397,132.494851 357.36,130.59 L360.5,127.45 C361.425734,126.531962 361.945627,125.281666 361.943749,123.977912 C361.94187,122.674159 361.418376,121.425366 360.49,120.51 Z M315.49,117.71 L312.98,117.71 L312.98,111.6 L321.39,111.6 L321.39,117.74 L315.82,117.74 C315.74,117.74 315.59,117.71 315.48,117.71 L315.49,117.71 Z M307.98,107.6 L307.98,101.4 L314.86,101.4 L314.86,107.54 L309.23,107.54 C309.042318,107.548999 308.855328,107.569034 308.67,107.6 L307.98,107.6 Z M328.57,112.42 L328.57,116.91 C328.564594,117.393754 328.173754,117.784594 327.69,117.79 L323.39,117.79 L323.39,111.59 L327.69,111.59 C328.151304,111.599325 328.528989,111.959645 328.56,112.42 L328.57,112.42 Z M323.34,102.28 L323.34,106.72 C323.332483,107.095498 323.087483,107.424842 322.73,107.54 L320.73,107.54 L320.73,106.62 C320.73,106.067715 320.282285,105.62 319.73,105.62 C319.177715,105.62 318.73,106.067715 318.73,106.62 L318.73,107.54 L316.84,107.54 L316.84,101.4 L318.74,101.4 L318.74,103.29 C318.74,103.842285 319.187715,104.29 319.74,104.29 C320.292285,104.29 320.74,103.842285 320.74,103.29 L320.74,101.4 L322.47,101.4 C322.945927,101.416024 323.324919,101.803831 323.33,102.28 L323.34,102.28 Z M303.12,106.72 L303.12,102.28 C303.125406,101.796246 303.516246,101.405406 304,101.4 L306,101.4 L306,107.6 L304,107.6 C303.512345,107.600031 303.115479,107.207624 303.11,106.72 L303.12,106.72 Z M308.33,116.91 L308.33,112.47 C308.337517,112.094502 308.582517,111.765158 308.94,111.65 L310.94,111.65 L310.94,117.76 L309.02,117.76 C308.620296,117.671639 308.334305,117.319332 308.33,116.91 L308.33,116.91 Z M296.13,127.08 L296.13,122.64 C296.135406,122.156246 296.526246,121.765406 297.01,121.76 L300.63,121.76 L300.63,123.76 C300.63,124.312285 301.077715,124.76 301.63,124.76 C302.182285,124.76 302.63,124.312285 302.63,123.76 L302.63,121.76 L308.74,121.76 L308.74,127.91 L302.62,127.91 L302.62,126.46 C302.62,125.907715 302.172285,125.46 301.62,125.46 C301.067715,125.46 300.62,125.907715 300.62,126.46 L300.62,127.91 L297,127.91 C296.520156,127.899243 296.135272,127.509936 296.13,127.03 L296.13,127.08 Z M310.74,127.91 L310.74,121.74 L315.62,121.74 C315.788144,121.768193 315.944479,121.844623 316.07,121.96 C316.030094,122.188016 316.0067,122.418615 316,122.65 L316,127.09 C316.008605,127.281027 316.02864,127.471368 316.06,127.66 C315.899811,127.817722 315.684788,127.907315 315.46,127.91 L310.74,127.91 Z M320.27,127.72 C320.309465,127.495285 320.332857,127.268042 320.34,127.04 L320.34,122.6 C320.331372,122.408974 320.311336,122.218635 320.28,122.03 C320.440189,121.872278 320.655212,121.782685 320.88,121.78 L324.31,121.78 L324.31,127.98 L320.88,127.98 C320.657292,127.972095 320.446109,127.879031 320.29,127.72 L320.27,127.72 Z M340.27,127.1 C340.264594,127.583754 339.873754,127.974594 339.39,127.98 L326.39,127.98 L326.39,121.78 L333.32,121.78 L333.32,123.72 C333.32,124.272285 333.767715,124.72 334.32,124.72 C334.872285,124.72 335.32,124.272285 335.32,123.72 L335.32,121.78 L339.42,121.78 C339.903754,121.785406 340.294594,122.176246 340.3,122.66 L340.27,127.1 Z M346.42,120.84 L347.42,119.84 C347.673659,119.588128 347.773677,119.220063 347.682378,118.874452 C347.59108,118.528841 347.322335,118.25819 346.977378,118.164452 C346.632421,118.070713 346.263659,118.168128 346.01,118.42 L345.01,119.42 L342.74,117.23 L347.12,112.84 L353.89,119.61 L349.51,124 L346.42,120.84 Z M340.25,113.43 L343.39,110.29 C343.735328,109.954685 344.284672,109.954685 344.63,110.29 L345.78,111.44 L341.4,115.83 L340.25,114.68 C340.078643,114.517056 339.979173,114.292619 339.973544,114.056225 C339.967916,113.819831 340.056592,113.590914 340.22,113.42 L340.25,113.43 Z M357.69,124.59 L354.55,127.73 C354.204672,128.065315 353.655328,128.065315 353.31,127.73 L351,125.42 L355.38,121.03 L357.69,123.34 C358.017098,123.693388 358.003805,124.242844 357.66,124.58 L357.69,124.59 Z" id="Shape"></path>
                    <path d="M349.55,116.67 C349.501257,116.550807 349.429951,116.44215 349.34,116.35 C349.247513,116.253296 349.134837,116.178179 349.01,116.13 C348.702362,116.003612 348.352018,116.038444 348.075287,116.222931 C347.798557,116.407418 347.631657,116.717415 347.63,117.05 C347.631552,117.183912 347.658706,117.316291 347.71,117.44 C347.758743,117.559193 347.830049,117.66785 347.92,117.76 C348.017036,117.85113 348.128559,117.925478 348.25,117.98 C348.494625,118.07394 348.765375,118.07394 349.01,117.98 C349.131624,117.92581 349.2432,117.851427 349.34,117.76 C349.429951,117.66785 349.501257,117.559193 349.55,117.44 C349.601294,117.316291 349.628448,117.183912 349.63,117.05 C349.62842,116.919323 349.601241,116.790222 349.55,116.67 Z" id="Shape"></path>
                </g>
            </g>
            <g id="main">
                <g id="colors" transform="translate(133.000000, 5.000000)">
                    <path d="M224.05,174.36 L224.05,179.15 C223.804832,190.205026 214.772744,199.039029 203.715,199.039029 C192.657256,199.039029 183.625168,190.205026 183.38,179.15 L183.38,174.36 L224.05,174.36 Z" id="Shape" fill="#FFC457"></path>
                    <rect id="Rectangle-path" fill="#FFC457" x="183.38" y="160.06" width="40.67" height="14.3"></rect>
                    <path d="M221.93,247.21 L185.49,247.21 L194.35,241.12 C196.940102,239.341577 198.488492,236.401881 198.49,233.26 L198.49,223.06 C200.046927,223.820275 201.757365,224.213675 203.49,224.21 L208.93,224.21 L208.93,233.28 C208.931508,236.421881 210.479898,239.361577 213.07,241.14 L221.93,247.21 Z" id="Shape" fill="#FFC457"></path>
                    <path d="M208.96,201.35 C217.52,201.35 217.52,224.19 208.96,224.19 L208.96,224.19 L203.52,224.19 C201.787365,224.193675 200.076927,223.800275 198.52,223.04 C197.513862,222.559635 196.586601,221.929097 195.77,221.17 C191.53491,217.289802 190.837217,210.869314 194.14,206.17 L194.14,206.17 C194.5131,205.620311 194.938407,205.107933 195.41,204.64 C197.550756,202.493387 200.458371,201.287878 203.49,201.29 L208.96,201.35 Z" id="Shape" fill="#FFD6AF"></path>
                    <path d="M195.74,221.19 L195.74,223.46 C184.81,229.58 165.54,228.46 154.74,218.17 L173.88,203.17 C178.51,208.52 188.32,208.24 194.11,206.23 C190.807217,210.929314 191.50491,217.349802 195.74,221.23 L195.74,221.19 Z" id="Shape" fill="#CC695C"></path>
                    <path d="M147.99,223.46 L147.99,238.79 L89.74,238.79 L89.74,187.65 C100.878862,187.652773 110.94961,181.02283 115.35,170.79 L129.59,170.79 C133.778144,170.810954 137.904439,169.77938 141.59,167.79 C145.453219,168.456127 149.205545,169.654179 152.74,171.35 C162.11,175.83 170.45,183.7 178.06,194.01 C179.590114,196.105351 179.178217,199.037345 177.13,200.63 L173.89,203.17 L154.75,218.17 L147.99,223.46 Z M139.99,199.34 C139.998514,195.72142 138.629102,192.235321 136.16,189.59 L135.78,189.19 L135,188.49 C130.7955,184.864802 124.871897,184.002809 119.808583,186.279371 C114.745269,188.555933 111.458704,193.558992 111.38,199.11 L106.67,203.82 C106.008411,204.482974 105.648637,205.388884 105.675117,206.325118 C105.701596,207.261352 106.111997,208.145479 106.81,208.77 C108.239093,209.963274 110.347262,209.849791 111.64,208.51 L113.42,206.73 C113.965303,207.628892 114.609294,208.464069 115.34,209.22 L115.34,209.22 C119.383052,213.437429 125.5839,214.773556 131.005035,212.595421 C136.426171,210.417286 139.978821,205.162344 139.98,199.32 L139.99,199.34 Z" id="Shape" fill="#6B8FB5"></path>
                    <path d="M61.83,71.17 C59.6299428,79.1646407 52.3618342,84.7057551 44.07,84.71 C38.53,84.71 33.7,86.65 30.25,90.77 C26.8,94.89 24.74,101.21 24.74,109.96 L24.74,145.67 C24.750758,154.890268 29.8040174,163.366084 37.91,167.76 C34.0381652,168.437929 30.2790349,169.649466 26.74,171.36 C20.955716,166.557257 17.0907007,159.835183 15.85,152.42 C13.0784873,152.417349 10.4215417,151.313827 8.46366167,149.352196 C6.5057816,147.390565 5.40734657,144.731513 5.41,141.96 L5.41,63.13 C5.40934828,43.3622379 18.9800319,26.179601 38.21,21.6 L37.93,20.46 C52.36,-4.21 87.74,-6.54 109.07,14.79 C137.74,2.13 165.74,19.63 165.74,53.63 C171.76072,57.4099648 175.413816,64.0210488 175.41,71.13 L175.41,127.46 C175.41,130.28986 174.285843,133.003816 172.284829,135.004829 C170.283816,137.005843 167.56986,138.13 164.74,138.13 L164.4,138.13 L164.4,142.42 C164.4,155.13 161.4,163.78 152.73,171.35 C149.187634,169.641199 145.424979,168.432976 141.55,167.76 C149.674735,163.367897 154.738452,154.875902 154.74,145.64 L154.74,112.96 L154.74,112.96 C154.74,111.96 154.79,110.96 154.79,109.96 C143.59,106.17 140.25,97.54 139.25,86.44 C121.61,86.44 106.39,75.57 101.4,60.87 L101.4,60.87 C97.74,80.13 74.12,83.45 61.83,71.17 Z" id="Shape" fill="#D19560"></path>
                    <path d="M157.54,275.91 C158.085683,277.209479 157.944913,278.695813 157.164973,279.869743 C156.385034,281.043672 155.069403,281.749448 153.66,281.75 L116.16,281.75 C104.513647,281.736341 94.4194598,273.682557 91.82,262.33 L89.74,253.13 L147.99,253.13 L157.54,275.91 Z" id="Shape" fill="#6B8FB5"></path>
                    <path d="M37.92,167.76 L37.92,167.76 C29.8101517,163.368734 24.7527477,154.892402 24.74,145.67 L24.74,109.96 C24.74,132.76 33.05,141.78 42.12,144.04 C50.59,146.15 59.31,142.04 63.88,134.65 C67.756042,128.340425 73.8004679,123.661328 80.88,121.49 C82.9233326,124.358755 86.2279316,126.062152 89.75,126.062152 C93.2720684,126.062152 96.5766674,124.358755 98.62,121.49 C105.699532,123.661328 111.743958,128.340425 115.62,134.65 C120.19,142.08 128.91,146.15 137.38,144.04 C146.04,141.88 154.01,133.56 154.71,112.96 L154.74,112.96 L154.74,145.64 C154.734481,159.527675 143.477675,170.784481 129.59,170.79 L49.89,170.79 C45.7096809,170.794593 41.5946754,169.75295 37.92,167.76 Z" id="Shape" fill="#BA885D"></path>
                    <path d="M98.61,121.49 C96.5666674,124.358755 93.2620684,126.062152 89.74,126.062152 C86.2179316,126.062152 82.9133326,124.358755 80.87,121.49 C73.7904679,123.661328 67.746042,128.340425 63.87,134.65 C59.3,142.08 50.58,146.15 42.11,144.04 C33.04,141.78 24.73,132.76 24.73,109.96 C24.73,101.21 26.79,94.9 30.24,90.77 C33.69,86.64 38.52,84.71 44.06,84.71 C52.3518342,84.7057551 59.6199428,79.1646407 61.82,71.17 C74.11,83.45 97.73,80.17 101.33,60.87 L101.33,60.87 C106.33,75.57 121.54,86.44 139.18,86.44 C140.18,97.54 143.52,106.17 154.72,109.96 C154.72,110.96 154.72,111.96 154.67,112.96 C153.97,133.56 146,141.88 137.34,144.04 C128.87,146.15 120.15,142.04 115.58,134.65 C111.711292,128.346167 105.678421,123.667759 98.61,121.49 L98.61,121.49 Z" id="Shape" fill="#FFD6AF"></path>
                    <path d="M147.99,315.96 L147.99,339.96 L146.89,339.96 C143.96105,330.869145 135.501042,324.706584 125.95,324.706584 C116.398958,324.706584 107.93895,330.869145 105.01,339.96 L103.91,339.96 L103.91,315.96 L147.99,315.96 Z" id="Shape" fill="#687A8C"></path>
                    <path d="M147.99,238.79 L147.99,253.13 L96.57,253.13 C100.529881,253.13 103.739999,249.919881 103.739999,245.96 C103.739999,242.000119 100.529881,238.79 96.57,238.79 L147.99,238.79 Z" id="Shape" fill="#99705C"></path>
                    <path d="M146.89,339.91 L105.01,339.91 C107.93895,330.819145 116.398958,324.656584 125.95,324.656584 C135.501042,324.656584 143.96105,330.819145 146.89,339.91 Z" id="Shape" fill="#807B73"></path>
                    <path d="M116.33,203.82 L113.42,206.73 L111.64,208.51 C110.347262,209.849791 108.239093,209.963274 106.81,208.77 C106.111997,208.145479 105.701596,207.261352 105.675117,206.325118 C105.648637,205.388884 106.008411,204.482974 106.67,203.82 L111.38,199.11 L121.3,189.19 C125.010499,185.475803 130.93026,185.173334 135,188.49 L135.78,189.19 L136.16,189.59 C139.798911,193.637181 139.63191,199.824986 135.78,203.67 L130.29,209.16 C128.997262,210.499791 126.889093,210.613274 125.46,209.42 C124.76071,208.795628 124.350249,207.91023 124.325637,206.973084 C124.301025,206.035939 124.664446,205.130216 125.33,204.47 L121.33,208.47 C120.037262,209.809791 117.929093,209.923274 116.5,208.73 C115.807963,208.112193 115.39842,207.238439 115.36632,206.311309 C115.33422,205.384178 115.68235,204.484191 116.33,203.82 Z" id="Shape" fill="#AFB9C2"></path>
                    <path d="M128.54,186.19 C125.823683,186.187104 123.218182,187.266731 121.3,189.19 L111.38,199.11 C111.458704,193.558992 114.745269,188.555933 119.808583,186.279371 C124.871897,184.002809 130.7955,184.864802 135,188.49 C133.175802,187.002252 130.893953,186.189829 128.54,186.19 L128.54,186.19 Z" id="Shape" fill="#3A5470"></path>
                    <path d="M125.68,213.65 C121.778597,213.653913 118.045713,212.0603 115.35,209.24 L115.35,209.24 C114.619294,208.484069 113.975303,207.648892 113.43,206.75 L116.34,203.84 C115.674446,204.500216 115.311025,205.405939 115.335637,206.343084 C115.360249,207.28023 115.77071,208.165628 116.47,208.79 C117.899093,209.983274 120.007262,209.869791 121.3,208.53 L125.3,204.53 C124.634446,205.190216 124.271025,206.095939 124.295637,207.033084 C124.320249,207.97023 124.73071,208.855628 125.43,209.48 C126.859093,210.673274 128.967262,210.559791 130.26,209.22 L135.75,203.73 C139.60191,199.884986 139.768911,193.697181 136.13,189.65 C140.010747,193.819086 141.049563,199.892668 138.77503,205.114544 C136.500498,210.336419 131.345742,213.712219 125.65,213.71 L125.68,213.65 Z" id="Shape" fill="#3A5470"></path>
                    <path d="M98.99,170.79 L115.35,170.79 C110.94961,181.02283 100.878862,187.652773 89.74,187.65 L98.99,170.79 Z" id="Shape" fill="#6B8FB5"></path>
                    <path d="M96.57,238.79 C99.1315944,238.79 101.498605,240.156594 102.779403,242.375 C104.0602,244.593406 104.0602,247.326594 102.779403,249.545 C101.498605,251.763406 99.1315944,253.13 96.57,253.13 L82.91,253.13 C78.9501183,253.13 75.74,249.919882 75.74,245.96 C75.74,242.000118 78.9501183,238.79 82.91,238.79 L96.57,238.79 L96.57,238.79 Z" id="Shape" fill="#AFB9C2"></path>
                    <polygon id="Shape" fill="#FFD6AF" points="98.99 170.79 89.74 187.65 80.49 170.79"></polygon>
                    <path d="M80.49,170.79 L89.74,187.65 C78.6011383,187.652773 68.5303897,181.02283 64.13,170.79 L80.49,170.79 Z" id="Shape" fill="#6B8FB5"></path>
                    <path d="M89.74,253.13 L87.66,262.29 C85.0605402,273.642557 74.9663534,281.696341 63.32,281.71 L25.82,281.71 C24.4211984,281.703957 23.1167462,281.003542 22.3389741,279.840893 C21.5612019,278.678244 21.4116935,277.205212 21.94,275.91 L30.15,256.36 L40.45,262.43 C43.6090292,264.292241 47.5236424,264.319242 50.7080597,262.500756 C53.892477,260.68227 55.8585265,257.29707 55.86,253.63 C55.86,253.48 55.86,253.32 55.86,253.17 L89.74,253.17 L89.74,253.13 Z" id="Shape" fill="#6B8FB5"></path>
                    <path d="M52.24,238.79 L82.91,238.79 C78.9501186,238.79 75.7400006,242.000119 75.7400006,245.96 C75.7400006,249.919881 78.9501186,253.13 82.91,253.13 L55.85,253.13 C55.7009621,249.725175 53.8628916,246.619211 50.95,244.85 L47.1,242.51 C46.4764559,242.132176 46.1610453,241.400552 46.314425,240.687788 C46.4678047,239.975023 47.0562372,239.437898 47.78,239.35 L52.24,238.79 Z" id="Shape" fill="#99705C"></path>
                    <path d="M75.57,315.96 L75.57,339.96 L74.47,339.96 C71.5410496,330.869145 63.0810416,324.706584 53.53,324.706584 C43.9789584,324.706584 35.5189504,330.869145 32.59,339.96 L31.49,339.96 L31.49,315.96 L75.57,315.96 Z" id="Shape" fill="#687A8C"></path>
                    <path d="M75.57,315.96 L31.49,315.96 C28.5511879,315.956797 25.7650619,314.650707 23.8827298,312.39384 C22.0003977,310.136972 21.2156333,307.161655 21.74,304.27 L25.83,281.71 L63.33,281.71 C74.9763534,281.696341 85.0705402,273.642557 87.67,262.29 L89.75,253.13 L91.83,262.29 C94.4294598,273.642557 104.523647,281.696341 116.17,281.71 L153.63,281.71 L157.74,304.27 C158.263457,307.156504 157.48247,310.12667 155.606904,312.382366 C153.731338,314.638062 150.953559,315.947935 148.02,315.96 L103.91,315.96 L103.91,313.96 C103.91,306.134125 97.5658746,299.790001 89.74,299.790001 C81.9141254,299.790001 75.5700005,306.134125 75.57,313.96 L75.57,315.96 Z" id="Shape" fill="#6B8FB5"></path>
                    <path d="M74.47,339.91 L32.59,339.91 C35.5189504,330.819145 43.9789584,324.656584 53.53,324.656584 C63.0810416,324.656584 71.5410496,330.819145 74.47,339.91 Z" id="Shape" fill="#807B73"></path>
                    <path d="M30.15,256.32 L24.74,253.13 L34.21,236.49 C38.91,228.96 48.43,232.39 52.21,238.79 L47.75,239.35 C47.0262372,239.437898 46.4378047,239.975023 46.284425,240.687788 C46.1310453,241.400552 46.4464559,242.132176 47.07,242.51 L50.92,244.85 C53.8328916,246.619211 55.6709621,249.725175 55.82,253.13 C55.82,253.28 55.82,253.44 55.82,253.59 C55.8185265,257.25707 53.852477,260.64227 50.6680597,262.460756 C47.4836424,264.279242 43.5690292,264.252241 40.41,262.39 L30.15,256.32 Z" id="Shape" fill="#FFD6AF"></path>
                    <path d="M31.49,234.54 L34.21,236.49 L24.74,253.13 C4.41,241.46 -3.94,227.18 5.6,203.13 L31.49,223.42 L31.49,234.54 Z" id="Shape" fill="#CC695C"></path>
                    <path d="M31.49,223.46 L5.6,203.17 L2.36,200.63 C0.311782705,199.037345 -0.100113798,196.105351 1.43,194.01 C9.04,183.71 17.37,175.84 26.74,171.36 C30.2790349,169.649466 34.0381652,168.437929 37.91,167.76 L37.91,167.76 C41.5963381,169.747375 45.7221135,170.778819 49.91,170.76 L64.15,170.76 C68.5383629,180.997905 78.6012244,187.63963 89.74,187.65 L89.74,238.79 L52.24,238.79 C48.43,232.39 38.91,228.96 34.24,236.49 L31.52,234.54 L31.49,223.46 Z" id="Shape" fill="#6B8FB5"></path>
                </g>
                <g id="shadows-2" transform="translate(134.000000, 5.000000)">
                    <path d="M88.74,127.55 L88.74,89.24 C88.7338318,88.2403354 88.0108298,87.3893899 87.0252859,87.2218475 C86.039742,87.054305 85.0761608,87.6185314 84.74,88.56 L75.34,115.56 L88.74,127.55 Z" id="Shape" fill="#FFFFFF" opacity="0.4"></path>
                    <path d="M127.5,144.09 L121.35,151.59 C115.699144,158.477542 107.259007,162.470094 98.35,162.47 L51.08,162.47 C44.6114121,162.470626 38.2119408,161.139672 32.28,158.56 L26.34,155.97 L34.13,165.97 L43.24,170.11 L134.24,170.11 C146.506667,167.443333 153,158.203333 153.72,142.39 L153.72,126.06 C148.57,139.79 139.59,145.3 127.5,144.09 Z" id="Shape" fill="#B36E4F"></path>
                    <path d="M151.97,116.81 L152.45,109.48 C144.737963,104.072424 138.85124,96.4489784 135.57,87.62 C134.92,98.02 136.33,107.03 141.57,113.45 C144.77889,117.428018 145.984296,122.658817 144.84,127.64 C142.986667,135.906667 137.19,141.386667 127.45,144.08 C143.57,143.87 152.98,135.79 153.38,117.15 L151.97,116.81 Z" id="Shape" fill="#F2BA9B"></path>
                    <path d="M4.41,137.29 C13.75,138.62 19.76,129.41 23.84,114.07 L24.06,149.61 C25.22,157.61 28.81,163.61 34.74,167.76 L23.74,171.36 L13.24,151.96 L4.41,148.1 L4.41,137.29 Z" id="Shape" fill="#161616" opacity="0.15"></path>
                    <polygon id="Shape" fill="#FAA94D" points="197.72 230.59 207.93 230.59 207.93 225.46 198.09 224.21"></polygon>
                    <path d="M178.74,206.73 L174.59,210.91 C173.23836,212.275279 172.753356,214.276497 173.329976,216.109098 C173.906595,217.941699 175.450119,219.30465 177.34,219.65 C182.025147,220.482601 186.854176,219.714747 191.05,217.47 L193.99,223.07 C178.37,230.66 165.8,226.99 154.62,218.18 L173.25,202.91 L178.74,206.73 Z" id="Shape" fill="#C45252"></path>
                    <path d="M11.56,208.62 C11.88,216.54 14.74,222.62 22.18,228.15 L28.36,233.02 L30.49,222.09 L11.56,208.62 Z" id="Shape" fill="#C45252"></path>
                    <path d="M22.18,201.32 C17.7,206.93 12.08,206.7 6.01,204.32 L30.49,223.5 L30.49,207.21 L22.18,201.32 Z" id="Shape" fill="#161616" opacity="0.15"></path>
                    <path d="M36.88,167.76 C36.88,174.76 52.54,179.11 71.63,180.71 C77.14,181.17 82.42,187.63 88.21,187.63 C94.45,187.63 101.21,181.13 107.06,180.63 C125.06,178.96 139.55,174.71 139.55,167.8 L125.74,171.36 L46.65,171.36 L36.88,167.76 Z" id="Shape" fill="#161616" opacity="0.25"></path>
                    <path d="M50.03,20.46 C59.91,8.4 75.7,4.09 96.74,6.66 C72.74,-4.34 53.17,-0.81 38.26,18.34 L50.03,20.46 Z" id="Shape" fill="#FFFFFF" opacity="0.2"></path>
                    <path d="M6.01,188.08 C15.24,192.8 36.93,185.96 35.74,167.13 C22.96,173.13 12.39,179.91 6.01,188.08 Z" id="Shape" fill="#FFFFFF" opacity="0.15"></path>
                    <path d="M47.07,20.46 C33.85,26.56 22.59,34.76 15.96,47.89 C13.4882587,52.8599082 12.21427,58.3394297 12.24,63.89 L12.24,70.53 C12.24,74.8543896 8.73438959,78.36 4.41,78.36 L4.41,78.36 L4.41,53.63 C12.09,32.4833333 26.31,21.4266667 47.07,20.46 Z" id="Shape" fill="#FFFFFF" opacity="0.2"></path>
                    <path d="M59.95,55.55 C59.4731873,54.6647301 58.4485773,54.2255622 57.4786618,54.4907361 C56.5087464,54.7559101 55.8500916,55.6552809 55.89,56.66 C56.11,64.92 54.22,71.04 50.89,75.66 C48.52,78.13 45.74,78.36 42.28,78.55 C35.0707266,78.9298404 28.682315,83.3175283 25.74,89.91 L23,96.05 L32,87.2 L37.31,85.93 C49.93,86.74 58.62,80.78 62.02,65.74 C62.3309717,62.2145676 61.6118753,58.6746676 59.95,55.55 L59.95,55.55 Z" id="Shape" fill="#FFFFFF" opacity="0.2"></path>
                    <ellipse id="Oval" fill="#FFFFFF" opacity="0.2" transform="translate(29.008452, 50.488995) rotate(-55.770000) translate(-29.008452, -50.488995) " cx="29.0084521" cy="50.4889949" rx="13.74" ry="7.59"></ellipse>
                    <path d="M4.41,85.17 L4.41,85.17 C8.45824722,85.17 11.74,88.4517528 11.74,92.5 L11.74,112.79 C11.74,116.838247 8.45824722,120.12 4.41,120.12 L4.41,120.12 L4.41,85.17 Z" id="Shape" fill="#FFFFFF" opacity="0.2"></path>
                    <circle id="Oval" fill="#FFFFFF" opacity="0.2" cx="40.42" cy="33.67" r="2.46"></circle>
                    <path d="M100.83,62.63 L95.74,50.46 C95.12,58.2 92.23,64.12 87.52,67.57 C82.3368454,71.1767054 75.5446514,71.4916268 70.05,68.38 C67.3647885,66.9217289 64.8579997,65.1565737 62.58,63.12 L60.84,71.12 C66.84,75.88 72.77,78.33 78.68,78.33 L78.68,78.33 L78.96,78.33 C79.39,78.33 79.82,78.33 80.25,78.27 L80.88,78.22 C81.2,78.22 81.53,78.15 81.88,78.11 C85.3440854,77.668937 88.6489987,76.3922727 91.51,74.39 C92.29,73.9 93.07,73.39 93.85,72.8 L93.49,72.8 C96.595488,69.9379206 99.0919144,66.4789755 100.83,62.63 L100.83,62.63 Z" id="Shape" fill="#D17F54"></path>
                    <g id="Group" opacity="0.6" transform="translate(75.000000, 185.000000)" fill="#FFFFFF">
                        <polygon id="Shape" points="0.49 60.96 27.74 60.96 24.12 52.96 2.87 52.96"></polygon>
                        <path d="M31.26,22.96 L48.62,6.09 C52.11,4.17 56.25,4.18 60.8,5.37 C49.96,-4.02 43.59,2.51 37.43,9.8 L34.85,14.65 L29.33,21.05 L31.26,22.96 Z" id="Shape"></path>
                        <path d="M48.91,10.64 L48.91,10.64 C49.4935033,11.2051175 49.8229027,11.9826984 49.8229027,12.795 C49.8229027,13.6073016 49.4935033,14.3848825 48.91,14.95 L40.42,23.44 L38.23,21.25 L48.91,10.64 Z" id="Shape"></path>
                        <path d="M48.54,24.91 L53.6,19.85 C54.8639314,18.5849364 54.8639314,16.5350636 53.6,15.27 L53.6,15.27 L46.25,22.62 L48.54,24.91 Z" id="Shape"></path>
                    </g>
                    <path d="M153.82,279.51 L156.82,278.23 L150.59,256.99 L148.45,256.99 L147.01,253.13 L55.57,253.13 L51.81,260.85 L136.67,260.85 C139.419632,260.847582 141.904232,262.489544 142.98,265.02 L142.98,265.02 C144.32076,268.181796 143.07771,271.846429 140.09,273.54 C134.22,276.9 126.93,279.12 119.5,281.22 L149.69,280.78 L149.88,281.22 L150.95,280.76 L153.75,280.76 L153.82,279.51 Z" id="Shape" fill="#161616" opacity="0.2"></path>
                    <path d="M57.24,238.79 L57.24,238.79 C57.24,240.691602 57.9954085,242.51532 59.3400444,243.859956 C60.6846802,245.204591 62.5083978,245.96 64.41,245.96 L75.49,245.96 L75.49,239.96 L57.24,238.79 Z" id="Shape" fill="#FFFFFF" opacity="0.2"></path>
                    <path d="M102.74,245.96 L131.82,245.96 C133.721602,245.96 135.54532,245.204591 136.889956,243.859956 C138.234591,242.51532 138.99,240.691602 138.99,238.79 L101.55,238.79 L102.74,245.96 Z" id="Shape" fill="#FFFFFF" opacity="0.2"></path>
                    <polygon id="Shape" fill="#161616" opacity="0.15" points="146.99 208.13 166.6 192.06 174.24 202.1 147.5 223.06"></polygon>
                    <path d="M144.2,207.04 C141.94,218.3 140.47,228.83 140.56,237.96 L113.25,237.96 L97.61,222.32 L112.42,208.44 L120.27,213.12 L127.5,213.84 L132.41,211.62 L136.99,206.62 L138.99,200.13 L134.76,187.13 L151.15,203.52 L144.2,207.04 Z" id="Shape" fill="#161616" opacity="0.15"></path>
                    <path d="M189.83,242.38 C198.14,242.53 205.25,241.18 207.93,234.38 L217.24,246.51 L185.04,246.89 L189.83,242.38 Z" id="Shape" fill="#FFECB3"></path>
                    <path d="M38.03,253.97 L42.03,247.06 C42.7269824,245.859076 44.2591539,245.440401 45.47,246.12 L45.47,246.12 C46.065475,246.444908 46.5062452,246.994508 46.6940897,247.646329 C46.8819343,248.298149 46.801244,248.998026 46.47,249.59 L42.47,256.52 C42.1281255,257.112195 41.5619211,257.541534 40.8994395,257.710919 C40.2369579,257.880303 39.5341634,257.775424 38.95,257.42 L38.95,257.42 C37.7504188,256.715896 37.3402908,255.177915 38.03,253.97 L38.03,253.97 Z" id="Shape" fill="#FFFFFF" opacity="0.4"></path>
                    <path d="M42.07,315.96 L42.07,327.62 C64.74,321.96 74.57,339.91 74.57,339.91 L74.57,315.91 L42.07,315.96 Z" id="Shape" fill="#161616" opacity="0.2"></path>
                    <path d="M114.35,315.96 L114.35,327.62 C135.74,319.46 146.85,339.91 146.85,339.91 L146.85,315.91 L114.35,315.96 Z" id="Shape" fill="#161616" opacity="0.2"></path>
                    <path d="M25.53,291.63 C25.53,308.46 33.27,315.26 59.74,315.63 L26.33,315.96 L20.61,306.96 L25.53,291.63 Z" id="Shape" fill="#FFFFFF" opacity="0.15"></path>
                    <path d="M145.89,281.71 L111.74,281.71 L99.12,274.82 L88.74,260.46 L81.91,272.21 L67.28,281.21 C56.58,283.66 39.69,282.27 24.01,281.63 L24.39,288.22 L61.39,288.22 C61.89,288.22 62.39,288.22 62.89,288.22 C71.89,287.82 79.25,295.22 78.23,304.15 L78.23,304.5 C88.98,295.92 97.78,298.27 104.01,315 L146.85,316 C152.49,311.34 148.62,294.96 145.89,281.71 Z" id="Shape" fill="#161616" opacity="0.2"></path>
                    <path d="M65.24,177.21 C66.92,186.21 70.24,192.59 77.87,199.21 L77.87,238.78 L88.22,238.78 L88.22,187.63 L65.24,177.21 Z" id="Shape" fill="#FFFFFF" opacity="0.15"></path>
                    <path d="M92.07,263.8 C101.736644,272.663908 113.684518,278.655161 126.57,281.1 C108.57,283.25 96.12,278.64 92.07,263.8 Z" id="Shape" fill="#FFFFFF" opacity="0.15"></path>
                    <path d="M71.8,125.35 C83.0933333,136.61 94.3833333,136.61 105.67,125.35 L98.61,120.63 L91.07,127.21 L84.63,125.21 L75.93,122.08 L71.8,125.35 Z" id="Shape" fill="#B36E4F"></path>
                    <path d="M23.57,144.96 C34.74,155.46 55.74,158.6 65.24,136.63 C65.24,136.63 45.53,144.4 44.88,144.63 C44.23,144.86 30.49,138.91 30.49,138.91 L23.93,129.46 L23.57,144.96 Z" id="Shape" fill="#FFFFFF" opacity="0.2"></path>
                    <path d="M27.4,246.7 C17.13,241.07 8.4,232.01 0.68,220.7 L3.68,234.3 L14.18,246.69 L24.01,252.69 L27.4,246.7 Z" id="Shape" fill="#FFFFFF" opacity="0.15"></path>
                    <path d="M174.41,98.13 L174.41,113.13 L173.64,113.45 C171.726667,120.71 168.313333,125.71 163.4,128.45 C163.51,129.08 163.63,133.2 163.73,138.45 C162.97,151.75 161.06,164.26 152.57,172.26 L143.57,167.26 L151.74,156.13 L153.74,135.13 L153.74,121.73 L152.79,122.13 L153.74,117.42 L153.74,110.91 L155.03,111.06 L155.25,109.98 C144.54,107.98 139.81,100.57 138.56,90.08 L132.56,86.73 C110.56,82.33 101.85,68.38 98.66,50.48 C99.73,51.97 100.83,53.4 101.94,54.76 C106.842146,60.8982529 114.225704,64.531374 122.08,64.67 C145.34,64.77 155.23,34.32 139.08,21.67 C133.948249,17.7765068 127.317946,16.4430791 121.08,18.05 C116.42,19.2 110.16,20.94 107.08,22.63 C104.75139,23.9130582 102.033011,24.2973318 99.44,23.71 C94.7841521,22.79219 89.9731494,23.0464858 85.44,24.45 C84.8216754,24.6093105 84.1757803,24.317015 83.8873457,23.7473566 C83.5989111,23.1776983 83.7456132,22.4840877 84.24,22.08 C88.4333333,18.7466667 93.67,18.16 99.95,20.32 C97.32,11.61 90.49,6.01 82.66,1.15 C93.87,3.26 103.11,7.15 108.42,14.8 L108.19,15.32 L110.39,13.87 C125.49,9.69 139.17,9.87 149.39,20.43 C148.01,19.43 152.28,22.64 155.49,25.3 C157.36,35.78 158.78,45.7 157.35,52.17 L152.35,52.97 C163.94,58.8 168.52,67.3 171.44,89.47 C171.44,89.47 172.44,87.47 173.8,84.47 L174.34,98.41 C174.34,98.33 174.38,98.24 174.41,98.13 Z" id="Shape" fill="#D17F54"></path>
                    <path d="M26.33,264.79 C32.89,274.04 45.97,279.79 67.27,281.21 L21.08,281.6 L20.56,276.27 L26.33,264.79 Z" id="Shape" fill="#FFFFFF" opacity="0.15"></path>
                    <path d="M86.74,77.02 L69.57,77.02 L68.68,76.55 L68.73,76.43 L60.49,72.25 C57.32,79.09 52.88,83.35 46.9,84.46 C33.83,83.27 27.57,90.24 24.57,101.13 C29.23,86.84 51.36,98.77 63.96,84.4 C79.35,87.76 91.77,84.4 98.61,68.45 L86.74,77.02 Z" id="Shape" fill="#F2BA9B"></path>
                    <path d="M26.33,96.11 C29.68,119.79 35.12,140.55 54.53,141.79 L41.07,144.09 L28.34,135.79 L23.57,120.63 L26.33,96.11 Z" id="Shape" fill="#FFFFFF" opacity="0.4"></path>
                    <path d="M221.99,160.06 L182.38,160.06 L182.38,167.76 L186.02,167.76 C188.124205,167.76 189.83,169.465795 189.83,171.57 L189.83,179.43 C189.790561,181.900456 191.618248,184.004021 194.07,184.31 C195.392253,184.442892 196.708964,184.009815 197.694176,183.117979 C198.679388,182.226143 199.241006,180.958914 199.24,179.63 L199.24,170.85 C199.24,169.14344 200.62344,167.76 202.33,167.76 L221.99,167.76 L221.99,160.06 Z" id="Shape" fill="#FFECB3"></path>
                    <path d="M186.87,188.63 C195.54,197.45 220.25,191.77 220.25,168.32 C224.25,174.87 225.15,186.12 214.39,193.99 C203.63,201.86 189.12,196.52 186.87,188.63 Z" id="Shape" fill="#FAA94D"></path>
                    <path d="M58.32,326.79 C64.9,331.96 52.19,337.79 39.32,337.79 C63.59,340.79 73.09,338.79 73.09,338.79 C73.09,338.79 74.57,325.97 58.32,326.79 Z" id="Shape" fill="#161616" opacity="0.15"></path>
                    <ellipse id="Oval" fill="#FFFFFF" opacity="0.15" transform="translate(46.962000, 330.439200) rotate(-23.498566) translate(-46.962000, -330.439200) " cx="46.962" cy="330.4392" rx="6.50070293" ry="3.35067095"></ellipse>
                    <path d="M131.32,326.79 C137.9,331.96 125.19,337.79 112.32,337.79 C136.59,340.79 146.09,338.79 146.09,338.79 C146.09,338.79 147.57,325.97 131.32,326.79 Z" id="Shape" fill="#161616" opacity="0.15"></path>
                    <ellipse id="Oval" fill="#FFFFFF" opacity="0.15" transform="translate(120.132000, 330.239200) rotate(-23.498566) translate(-120.132000, -330.239200) " cx="120.132" cy="330.2392" rx="6.50070293" ry="3.35067095"></ellipse>
                </g>
                <g id="lines-2">
                    <path d="M185.37,130.91 C184.545689,130.911595 183.804837,130.407286 183.504041,129.639814 C183.203245,128.872342 183.404129,127.998938 184.01,127.44 L213.52,100.09 C214.665707,99.0292131 216.330715,98.7472801 217.761783,99.3717462 C219.192852,99.9962122 220.118512,101.408619 220.12,102.97 C220.10715,104.192191 219.536212,105.341434 218.57,106.09 L186.57,130.49 C186.22633,130.756795 185.805035,130.904249 185.37,130.91 Z" id="Shape" fill="#E6AE97"></path>
                    <path d="M230.74,144.42 C229.083146,144.42 227.74,145.763146 227.74,147.42 C227.74,150.181424 225.501424,152.42 222.74,152.42 C219.978576,152.42 217.74,150.181424 217.74,147.42 C217.74,145.763146 216.396854,144.42 214.74,144.42 C213.083146,144.42 211.74,145.763146 211.74,147.42 C211.74,153.495132 216.664868,158.42 222.74,158.42 C228.815132,158.42 233.74,153.495132 233.74,147.42 C233.74,145.763146 232.396854,144.42 230.74,144.42 Z" id="Shape" fill="#324454"></path>
                    <path d="M174.49,109.65 C175.1487,111.167254 176.911184,111.86509 178.43,111.21 L183.74,108.91 C183.74,109.06 183.84,109.22 183.9,109.36 C184.029573,109.661953 184.18341,109.952906 184.36,110.23 C184.54126,110.50304 184.748925,110.757598 184.98,110.99 C185.215309,111.217826 185.469558,111.42524 185.74,111.61 C186.017094,111.78659 186.308047,111.940427 186.61,112.07 C186.910179,112.193292 187.221648,112.287067 187.54,112.35 C188.199487,112.488367 188.880513,112.488367 189.54,112.35 C189.858352,112.287067 190.169821,112.193292 190.47,112.07 C190.769838,111.942676 191.057657,111.788727 191.33,111.61 C191.602481,111.427983 191.856968,111.220375 192.09,110.99 C192.326597,110.759946 192.537807,110.505152 192.72,110.23 C192.89659,109.952906 193.050427,109.661953 193.18,109.36 C193.303292,109.059821 193.397067,108.748352 193.46,108.43 C193.599538,107.770635 193.599538,107.089365 193.46,106.43 C193.397067,106.111648 193.303292,105.800179 193.18,105.5 C193.1,105.3 192.98,105.12 192.88,104.93 L198.71,102.41 C200.231544,101.752781 200.932219,99.9865445 200.275,98.4650001 C199.617781,96.9434557 197.851544,96.2427813 196.33,96.9 L176.08,105.65 C175.330715,105.960082 174.738872,106.560285 174.439331,107.313847 C174.139791,108.067408 174.158069,108.910135 174.49,109.65 L174.49,109.65 Z" id="Shape" fill="#324454"></path>
                    <path d="M246.8,102.46 L252.63,104.98 C252.53,105.17 252.42,105.35 252.33,105.55 C252.206708,105.850179 252.112933,106.161648 252.05,106.48 C251.911923,107.139517 251.911923,107.820483 252.05,108.48 C252.112933,108.798352 252.206708,109.109821 252.33,109.41 C252.457324,109.709838 252.611273,109.997657 252.79,110.27 C252.96898,110.550555 253.180442,110.809009 253.42,111.04 C254.357055,111.97469 255.626475,112.499719 256.95,112.5 C257.285949,112.502503 257.621199,112.468978 257.95,112.4 C258.268352,112.337067 258.579821,112.243292 258.88,112.12 C259.179838,111.992676 259.467657,111.838727 259.74,111.66 C260.012266,111.477692 260.266727,111.270106 260.5,111.04 C260.739019,110.808512 260.950427,110.550125 261.13,110.27 C261.308727,109.997657 261.462676,109.709838 261.59,109.41 C261.65,109.26 261.7,109.11 261.75,108.96 L267.07,111.26 C268.591544,111.917219 270.357781,111.216544 271.015,109.695 C271.672219,108.173456 270.971544,106.407219 269.45,105.75 L249.18,96.91 C247.658456,96.2527812 245.892219,96.9534556 245.235,98.4750001 C244.577781,99.9965445 245.278456,101.762781 246.8,102.42 L246.8,102.46 Z" id="Shape" fill="#324454"></path>
                    <path d="M270.54,193.91 C270.44,193.8 270.36,193.68 270.26,193.58 L269.94,193.25 L269.84,193.14 L269.76,193.07 L269.31,192.64 L269.11,192.47 L268.83,192.24 C264.254733,188.384346 257.891547,187.449989 252.401001,189.827601 C246.910455,192.205213 243.238328,197.485236 242.92,203.46 L238.61,207.77 C237.658456,208.722957 237.138163,210.02369 237.17,211.37 C237.20243,212.718432 237.792652,213.993022 238.8,214.89 C239.22909,215.269695 239.723859,215.567912 240.26,215.77 L231.11,224.91 C230.542443,225.460372 230.499488,226.356772 231.011818,226.958892 C231.524148,227.561011 232.415863,227.662122 233.05,227.19 L248.23,216.19 C251.101368,218.765575 254.822754,220.190029 258.68,220.19 C264.850061,220.190625 270.45601,216.599543 273.035081,210.994362 C275.614151,205.389182 274.694445,198.795498 270.68,194.11 L270.54,193.91 Z M254.03,192.42 C253.76,192.65 253.49,192.88 253.24,193.13 L246.82,199.55 C248.150043,196.286995 250.754174,193.708146 254.03,192.41 L254.03,192.42 Z M240.74,209.91 L255.37,195.28 C258.518306,192.139601 263.521361,191.85998 267,194.63 L267.15,194.76 C267.3,194.89 267.45,195.03 267.6,195.17 L267.72,195.29 L267.8,195.38 C267.946667,195.533333 268.09,195.69 268.23,195.85 L268.34,195.98 C271.127956,199.44474 270.869702,204.450556 267.74,207.61 L262.25,213.1 C261.534848,213.89815 260.317678,213.99076 259.49,213.31 C259.096459,212.960248 258.864744,212.463559 258.8496,211.937278 C258.834455,211.410997 259.037223,210.901805 259.41,210.53 L262.58,207.36 C262.981306,206.986059 263.146498,206.422889 263.010771,205.891422 C262.875044,205.359955 262.460045,204.944956 261.928578,204.809229 C261.397111,204.673502 260.833941,204.838694 260.46,205.24 L257.29,208.41 L253.29,212.41 C252.574848,213.20815 251.357678,213.30076 250.53,212.62 C250.136459,212.270248 249.904744,211.773559 249.8896,211.247278 C249.874455,210.720997 250.077223,210.211805 250.45,209.84 L257.8,202.49 C258.350718,201.89898 258.334468,200.977981 257.763244,200.406756 C257.192019,199.835532 256.27102,199.819282 255.68,200.37 L248.33,207.72 L243.64,212.41 C242.924848,213.20815 241.707678,213.30076 240.88,212.62 C240.499954,212.280466 240.271358,211.803132 240.245065,211.294185 C240.218773,210.785238 240.396965,210.286889 240.74,209.91 Z M258.69,217.18 C256.767844,217.181105 254.870393,216.746913 253.14,215.91 C253.977705,215.665389 254.740884,215.215044 255.36,214.6 L256.19,213.77 C256.471533,214.458448 256.905795,215.073937 257.46,215.57 C258.345006,216.361737 259.492549,216.79652 260.68,216.79 C262.059151,216.783665 263.379295,216.229708 264.35,215.25 L269.84,209.76 C270.132804,209.464789 270.409855,209.154359 270.67,208.83 C268.795842,213.829542 264.019274,217.144057 258.68,217.15 L258.69,217.18 Z" id="Shape" fill="#324454"></path>
                    <path d="M357.8,253.1 C358.187879,251.844633 357.713717,250.482937 356.63,249.74 L347.74,243.65 C345.966981,242.428673 344.908638,240.41296 344.91,238.26 L344.91,231.56 C346.918785,230.613882 348.524794,228.983055 349.44,226.96 C350.765332,224.080815 351.421734,220.938975 351.36,217.77 C351.36,212.08 349.62,207.55 346.8,205.18 C354.871578,201.295567 360.011089,193.137613 360.03,184.18 L360.03,165.06 C360.03,163.403146 358.686854,162.06 357.03,162.06 L316.38,162.06 C314.723146,162.06 313.38,163.403146 313.38,165.06 L313.38,184.15 C313.391902,193.785545 319.316356,202.426036 328.3,205.91 C327.176692,206.678427 326.166835,207.600763 325.3,208.65 C321.47,209.76 315.69,210.09 311.75,208.16 L311.96,207.99 C315.308979,205.406102 315.971665,200.616086 313.45,197.22 C311.76,194.94 310.06,192.81 308.34,190.81 L308.34,190.74 L308.23,190.63 C303.289626,184.704188 297.403606,179.635858 290.81,175.63 C297.52,168.44 300.43,159.75 300.43,147.42 L300.43,145.91 C306.82177,144.629089 311.423755,139.018851 311.43,132.5 L311.43,92.5 C312.526506,93.3331271 313.767255,93.956892 315.09,94.34 C316.660144,94.7437408 318.266995,93.8270028 318.718446,92.2699052 C319.169896,90.7128077 318.302601,89.0787393 316.76,88.58 C314.46,87.91 312.76,85.75 311.43,81.64 L311.43,76.15 C311.428421,68.5982119 307.820486,61.5012442 301.72,57.05 C301.3,40.54 294.37,26.74 282.53,19.05 C274.480788,13.8955956 264.861904,11.7690922 255.39,13.05 C256.014804,10.3871638 255.816029,7.59735185 254.82,5.05 C254.350196,4.08538275 253.401462,3.44467723 252.331177,3.36923104 C251.260891,3.29378485 250.231657,3.79506007 249.631176,4.68423115 C249.030696,5.57340222 248.950196,6.71538288 249.42,7.68 C250.071684,9.98555381 249.707843,12.4596707 248.42,14.48 C247.84,14.64 247.27,14.82 246.69,15 C247.49,9.47 245.53,4.87 240.69,0.81 C239.877695,0.0718660117 238.72714,-0.163746764 237.690077,0.195670515 C236.653014,0.555087795 235.895013,1.45215326 235.713689,2.53465134 C235.532365,3.61714943 235.956667,4.71225659 236.82,5.39 C240.06,8.13 241.28,10.89 240.65,14.53 C229.669595,5.31258168 215.365018,1.04871729 201.13,2.75 C187.498802,4.30545859 175.37329,12.1302781 168.34,23.91 C168.270759,24.0355321 168.210604,24.1658661 168.16,24.3 C155.451082,28.080352 144.999726,37.1751476 139.5,49.24 L139.5,49.24 C136.67,54.24 134.86,55.59 131.13,55.59 L131.13,55.59 C129.473146,55.59 128.13,56.9331458 128.13,58.59 C128.13,60.2468542 129.473146,61.59 131.13,61.59 L131.13,61.59 C132.788597,61.6124124 134.438885,61.3520186 136.01,60.82 C135.62029,63.2237845 135.422998,65.6548317 135.42,68.09 L135.42,107.24 C135.110535,110.561699 133.662031,113.674217 131.32,116.05 C130.309959,117.214601 130.346974,118.95515 131.405613,120.075758 C132.464251,121.196365 134.199885,121.332229 135.42,120.39 L135.42,146.93 C135.430391,153.408566 140.051276,158.962029 146.42,160.15 C147.754407,165.946466 150.608959,171.282788 154.69,175.61 C148.099954,179.616753 142.217366,184.685036 137.28,190.61 L137.18,190.71 L137.18,190.77 C135.46,192.77 133.76,194.9 132.07,197.18 C129.548335,200.576086 130.211021,205.366102 133.56,207.95 L135.07,209.13 C126.89,231.62 133.49,247.59 156.27,260.67 L156.27,260.67 L159.43,262.53 L152.23,279.67 C150.79674,283.088583 152.189252,287.036916 155.45,288.8 L151.74,308.73 C150.511798,315.479244 154.776616,322.010433 161.45,323.6 L161.45,341.91 L156.14,341.91 C154.483146,341.91 153.14,343.253146 153.14,344.91 C153.14,346.566854 154.483146,347.91 156.14,347.91 L303.41,347.91 C305.066854,347.91 306.41,346.566854 306.41,344.91 C306.41,343.253146 305.066854,341.91 303.41,341.91 L283.99,341.91 L283.99,323.59 C290.641223,321.987435 294.884529,315.471085 293.66,308.74 L290.06,288.91 C293.342581,287.155981 294.750668,283.191675 293.31,279.76 L283.99,257.58 L283.99,229.91 L287.64,227.05 C294.64,232.68 303.81,235.23 312.5,235.23 C318.0074,235.302626 323.465404,234.183735 328.5,231.95 L328.5,238.26 C328.501362,240.41296 327.443019,242.428673 325.67,243.65 L316.81,249.74 C315.729046,250.485145 315.258192,251.846606 315.647838,253.100352 C316.037485,254.354097 317.197102,255.20883 318.51,255.21 L354.95,255.21 C356.258499,255.203477 357.411824,254.349612 357.8,253.1 Z M344.1,224.28 C343.46,225.55 342.73,226.16 341.96,226.19 L336.5,226.19 L336.5,226.19 C334.250696,226.209546 332.088193,225.32292 330.5,223.73 C330.088135,223.318798 329.719539,222.86643 329.4,222.38 L338.4,222.38 C339.228427,222.38 339.9,221.708427 339.9,220.88 C339.9,220.051573 339.228427,219.38 338.4,219.38 L328.2,219.38 C327.99003,218.31357 327.99003,217.21643 328.2,216.15 L338.39,216.15 C339.218427,216.15 339.89,215.478427 339.89,214.65 C339.89,213.821573 339.218427,213.15 338.39,213.15 L329.39,213.15 C330.936524,210.786218 333.565294,209.355416 336.39,209.34 L341.88,209.34 C343.73,209.34 345.3,213.19 345.3,217.76 C345.380454,219.995827 344.967329,222.221921 344.09,224.28 L344.1,224.28 Z M354.1,168.06 L354.1,177.86 L319.38,177.86 L319.38,168.06 L354.1,168.06 Z M319.43,184.15 L319.43,180.86 L321.34,180.86 L324.34,183.86 C324.713941,184.261306 325.277111,184.426498 325.808578,184.290771 C326.340045,184.155044 326.755044,183.740045 326.890771,183.208578 C327.026498,182.677111 326.861306,182.113941 326.46,181.74 L325.61,180.89 L354.12,180.89 L354.12,184.18 C354.117415,187.766269 352.995204,191.262251 350.91,194.18 L346.91,190.18 C346.31898,189.629282 345.397981,189.645532 344.826756,190.216756 C344.255532,190.787981 344.239282,191.70898 344.79,192.3 L349,196.51 C348.420422,197.075529 347.802268,197.600125 347.15,198.08 L345.15,196.08 C344.55898,195.529282 343.637981,195.545532 343.066756,196.116756 C342.495532,196.687981 342.479282,197.60898 343.03,198.2 L344.52,199.69 C339.156108,202.356032 332.794785,202.057707 327.703942,198.901384 C322.613098,195.745061 319.517207,190.179913 319.52,184.19 L319.43,184.15 Z M151.8,156.84 L151.8,156.84 C151.272382,153.741755 151.021393,150.602719 151.05,147.46 C151.05,145.803146 149.706854,144.46 148.05,144.46 C146.393146,144.46 145.05,145.803146 145.05,147.46 C145.05,149.61 145.15,151.63 145.33,153.57 C142.910476,152.270401 141.400723,149.746462 141.4,147 L141.4,68.13 C141.422049,46.2300034 159.170003,28.4820488 181.07,28.46 C182.726854,28.46 184.07,27.1168542 184.07,25.46 C184.07,23.8031458 182.726854,22.46 181.07,22.46 C179.530453,22.4594736 177.99185,22.5362369 176.46,22.69 C182.760045,14.8442778 191.887897,9.78481942 201.88,8.6 C215.942182,6.94084295 229.984903,11.8504465 239.95,21.91 C240.064806,22.0231039 240.18854,22.1267727 240.32,22.22 L240.43,22.29 C240.551429,22.3690859 240.678428,22.4392696 240.81,22.5 L240.88,22.5 L240.96,22.5 C241.102852,22.557901 241.249955,22.6047063 241.4,22.64 L241.5,22.64 C241.674836,22.6723396 241.852201,22.6890721 242.03,22.69 L242.46,22.69 L242.71,22.69 L242.89,22.69 L243.15,22.6 L243.29,22.6 C256.03,16.97 269.13,17.52 279.23,24.1 C288.58,30.19 294.36,40.87 295.51,53.84 C294.529504,53.4971402 293.527293,53.2198619 292.51,53.01 C292.215423,48.7459831 290.864882,44.622192 288.58,41.01 C288.115022,40.3483723 287.209266,40.1744328 286.532287,40.6167618 C285.855308,41.0590907 285.650826,41.9584446 286.07,42.65 C287.979253,45.6377069 289.14511,49.0392655 289.47,52.57 C288.9,52.57 288.32,52.5 287.74,52.5 C286.083146,52.5 284.74,53.8431458 284.74,55.5 C284.74,57.1568542 286.083146,58.5 287.74,58.5 C297.494302,58.5110218 305.398978,66.4156975 305.41,76.17 L305.41,132.5 C305.406986,135.705219 303.413735,138.571513 300.41,139.69 L300.41,133.46 C300.41,131.803146 299.066854,130.46 297.41,130.46 C295.753146,130.46 294.41,131.803146 294.41,133.46 L294.41,147.46 C294.41,159.16 291.79,166.46 285.17,172.83 C283.97,172.32 282.76,171.83 281.54,171.48 C287.405626,166.155531 290.750314,158.601839 290.75,150.68 L290.75,119.06 L292.37,119.57 C293.396174,119.908726 294.525224,119.669383 295.325702,118.943432 C296.126179,118.21748 296.474371,117.117117 296.237222,116.062826 C296.000073,115.008535 295.214234,114.163257 294.18,113.85 L288.69,112.11 C279.11,108.86 276.13,101.62 275.2,91.5 C275.2,91.5 275.2,91.5 275.2,91.44 C275.196984,91.2552099 275.176899,91.0710938 275.14,90.89 C274.77,86.46 274.77,81.5 274.77,76.09 L274.77,75.09 C274.77,73.4331458 273.426854,72.09 271.77,72.09 C270.113146,72.09 268.77,73.4331458 268.77,75.09 L268.77,75.18 C266.434098,74.5381625 264.30471,73.3011881 262.59,71.59 C261.983576,71.036371 261.044722,71.0732335 260.483573,71.6727053 C259.922424,72.272177 259.947574,73.2114176 260.54,73.78 C262.797423,76.0343952 265.659332,77.5869114 268.78,78.25 C268.78,79.3166667 268.78,80.3766667 268.78,81.43 C261.78,80.07 255.99,76.24 251.11,69.77 C250.781316,69.3466402 250.251739,69.1307905 249.720757,69.2037597 C249.189774,69.2767288 248.738055,69.6274308 248.535756,70.1237598 C248.333458,70.6200887 248.411316,71.1866403 248.74,71.61 C254.24,78.9 260.85,83.13 268.85,84.51 C268.85,85.7833333 268.896667,87.0433333 268.99,88.29 C250.59,86.77 235.61,72.35 235.61,55.45 C235.61,53.7931458 234.266854,52.45 232.61,52.45 C230.953146,52.45 229.61,53.7931458 229.61,55.45 C229.611382,59.0441303 230.154137,62.6175504 231.22,66.05 C229.950762,72.4562592 225.219951,77.6227524 218.95,79.45 C211.719441,81.5804842 203.902506,79.9555525 198.12,75.12 C198.354844,73.8567447 198.475332,72.5748906 198.48,71.29 L198.48,70.71 C198.48,69.0531458 197.136854,67.71 195.48,67.71 C193.823146,67.71 192.48,69.0531458 192.48,70.71 L192.48,71.29 C192.474484,79.803945 185.573945,86.704484 177.06,86.71 C163.06,86.71 154.73,97.27 154.73,114.96 L154.73,150.67 C154.739384,158.581126 158.083135,166.121811 163.94,171.44 C162.71,171.84 161.49,172.29 160.29,172.8 C155.758524,168.576292 152.769985,162.958261 151.8,156.84 Z M256.95,163.57 C256.121573,163.57 255.45,164.241573 255.45,165.07 L255.45,172.8 L236.84,172.8 L236.84,163.61 C236.84,162.781573 236.168427,162.11 235.34,162.11 C234.511573,162.11 233.84,162.781573 233.84,163.61 L233.84,172.8 L221.99,172.8 L221.99,166.21 C221.99,165.381573 221.318427,164.71 220.49,164.71 C219.661573,164.71 218.99,165.381573 218.99,166.21 L218.99,172.79 L200.74,172.79 L200.74,163.6 C200.74,162.771573 200.068427,162.1 199.24,162.1 C198.411573,162.1 197.74,162.771573 197.74,163.6 L197.74,172.79 L182.89,172.79 C180.808743,172.78838 178.738196,172.492107 176.74,171.91 L176.74,161.91 C176.74,161.081573 176.068427,160.41 175.24,160.41 C174.411573,160.41 173.74,161.081573 173.74,161.91 L173.74,170.84 C165.838108,167.244614 160.758602,159.371379 160.74,150.69 L160.74,141.69 C162.390778,144.473531 164.60471,146.881608 167.24,148.76 L167.24,155.46 C167.24,156.288427 167.911573,156.96 168.74,156.96 C169.568427,156.96 170.24,156.288427 170.24,155.46 L170.24,150.46 C171.570306,151.093524 172.960532,151.592665 174.39,151.95 C176.120166,152.38192 177.896737,152.600213 179.68,152.6 C186.75987,152.520961 193.413925,149.204986 197.74,143.6 L197.74,151.38 C197.74,152.208427 198.411573,152.88 199.24,152.88 C200.068427,152.88 200.74,152.208427 200.74,151.38 L200.74,139.3 C203.270396,135.866858 206.568081,133.072558 210.37,131.14 L210.37,137.91 C210.37,138.738427 211.041573,139.41 211.87,139.41 C212.698427,139.41 213.37,138.738427 213.37,137.91 L213.37,130.34 C218.825739,135.384738 227.293953,135.212458 232.54,129.95 C233.531177,130.326442 234.499497,130.760516 235.44,131.25 L235.44,139.58 C235.44,140.408427 236.111573,141.08 236.94,141.08 C237.768427,141.08 238.44,140.408427 238.44,139.58 L238.44,133.11 C241.498385,135.2512 244.087841,137.993778 246.05,141.17 C249.193397,146.360069 254.20188,150.152206 260.05,151.77 L260.05,157.37 C260.05,158.198427 260.721573,158.87 261.55,158.87 C262.378427,158.87 263.05,158.198427 263.05,157.37 L263.05,152.37 C265.752273,152.722233 268.496696,152.562791 271.14,151.9 C274.215956,151.153864 277.086038,149.729073 279.54,147.73 L279.54,153.21 C279.54,154.038427 280.211573,154.71 281.04,154.71 C281.868427,154.71 282.54,154.038427 282.54,153.21 L282.54,144.81 C283.367468,143.817551 284.119565,142.764615 284.79,141.66 L284.79,150.66 C284.773474,162.886255 274.866255,172.793474 262.64,172.81 L258.5,172.81 L258.5,165.08 C258.505698,164.6699 258.343223,164.275353 258.05039,163.988188 C257.757557,163.701023 257.35991,163.546289 256.95,163.56 L256.95,163.57 Z M226.95,178.8 L222.74,186.41 L218.56,178.79 L226.95,178.8 Z M211.74,178.8 L217.37,189.07 C211.196084,187.701655 205.777287,184.028319 202.22,178.8 L211.74,178.8 Z M233.79,178.8 L243.3,178.8 C239.742713,184.028319 234.323916,187.701655 228.15,189.07 L233.79,178.8 Z M196.1,81.14 C200.916162,84.5749044 206.684429,86.4207496 212.6,86.42 C215.365775,86.4246345 218.116525,86.0133703 220.76,85.2 C226.749418,83.4501781 231.790353,79.3778234 234.76,73.89 C241.56,85.44 254.53,93.51 269.61,94.37 C270.94,104.37 274.61,112.76 284.8,117.04 C284.41,133.73 279.22,143.78 269.72,146.15 C262.72,147.9 255.28,144.66 251.24,138.15 C247.61741,132.25016 242.24948,127.623116 235.88,124.91 C236.418831,123.418722 236.696236,121.845634 236.7,120.26 C236.7,118.603146 235.356854,117.26 233.7,117.26 C232.043146,117.26 230.7,118.603146 230.7,120.26 C230.548881,124.500081 227.067773,127.859331 222.825,127.859331 C218.582227,127.859331 215.101119,124.500081 214.95,120.26 C214.95,118.603146 213.606854,117.26 211.95,117.26 C210.293146,117.26 208.95,118.603146 208.95,120.26 C208.953764,121.845634 209.231169,123.418722 209.77,124.91 C203.40052,127.623116 198.03259,132.25016 194.41,138.15 C190.41,144.71 182.95,147.95 175.93,146.15 C165.96,143.67 160.74,132.91 160.74,114.91 C160.74,100.56 166.54,92.66 177.07,92.66 C185.060716,92.6614241 192.388535,88.2169341 196.08,81.13 L196.1,81.14 Z M170.51,175.91 C174.361326,177.80634 178.59712,178.791726 182.89,178.79 L195.23,178.79 C200.006947,188.181484 209.2519,194.480574 219.74,195.49 L219.74,240.79 L186.82,240.79 C183.963795,236.876617 179.498048,234.456446 174.66,234.2 L174.53,234.2 C171.962588,234.178566 169.468557,235.055899 167.48,236.68 L167.48,213.13 C167.479509,212.230904 167.075792,211.379428 166.38,210.81 L158.07,204 C156.785072,203.008646 154.944741,203.218856 153.916466,204.474433 C152.888191,205.730011 153.044834,207.575673 154.27,208.64 L161.49,214.55 L161.49,222.3 L137.21,203.3 C136.444606,202.703491 136.285803,201.609514 136.85,200.82 C137.85,199.45 138.85,198.15 139.9,196.89 L141.99,198.6 C142.827788,199.269873 143.959309,199.441907 144.95833,199.051298 C145.957351,198.660689 146.672097,197.76678 146.83333,196.706298 C146.994563,195.645816 146.577788,194.579873 145.74,193.91 L143.74,192.3 C152.29,183.17 161.09,177.77 170.51,175.91 Z M277.99,255.13 L275.05,255.13 L275.05,251.84 C275.05,251.011573 274.378427,250.34 273.55,250.34 C272.721573,250.34 272.05,251.011573 272.05,251.84 L272.05,255.13 L238.84,255.13 C240.046618,252.480929 240.046618,249.439071 238.84,246.79 L278,246.79 L277.99,255.13 Z M222.74,255.13 L215.91,255.13 C213.606973,255.13 211.74,253.263027 211.74,250.96 C211.74,248.656973 213.606973,246.79 215.91,246.79 L229.57,246.79 C231.873027,246.79 233.74,248.656973 233.74,250.96 C233.74,253.263027 231.873027,255.13 229.57,255.13 L222.74,255.13 Z M184.74,262.44 C184.45094,262.877966 184.115684,263.283625 183.74,263.65 L176.05,258.91 C175.591962,258.60662 175.004717,258.57792 174.519279,258.835191 C174.033841,259.092461 173.727891,259.594532 173.721786,260.143896 C173.715682,260.69326 174.010399,261.202006 174.49,261.47 L180.94,265.4 C178.942914,266.076817 176.749389,265.842841 174.94,264.76 L164.94,258.84 C164.798175,258.737028 164.647599,258.646682 164.49,258.57 L161.83,257 L169.83,243 C170.779951,241.249927 172.608742,240.157254 174.6,240.15 L174.66,240.15 C176.286967,240.215384 177.863127,240.734997 179.21,241.65 C177.578909,242.340872 176.471955,243.886834 176.343353,245.653532 C176.214751,247.42023 177.086154,249.110201 178.6,250.03 L182.45,252.37 C184.109284,253.371449 185.292485,255.001958 185.73,256.89 C185.821544,257.294419 185.878417,257.705911 185.9,258.12 L179.11,253.98 C178.406033,253.586634 177.51703,253.82025 177.097395,254.508881 C176.67776,255.197513 176.877684,256.094694 177.55,256.54 L185.36,261.3 C185.187633,261.697675 184.980145,262.079186 184.74,262.44 L184.74,262.44 Z M191.38,255.13 C190.509625,251.856476 188.406012,249.04688 185.51,247.29 L184.81,246.87 L185.42,246.79 L206.64,246.79 C205.433382,249.439071 205.433382,252.480929 206.64,255.13 L191.38,255.13 Z M140,213.13 L161.49,229.91 L161.49,233.69 L158.05,231.23 C157.178854,230.590567 156.031129,230.469063 155.045406,230.911918 C154.059684,231.354773 153.388308,232.293545 153.287834,233.369498 C153.187359,234.44545 153.673315,235.492296 154.56,236.11 L163.27,242.35 L156.65,253.98 C139.09,243.11 134.1,230.91 140,213.08 L140,213.13 Z M157.74,282.03 L164.62,265.64 L171.96,269.97 C175.65355,272.150502 180.175835,272.402017 184.088402,270.644542 C188.00097,268.887068 190.816713,265.339406 191.64,261.13 L219.02,261.13 L217.74,266.62 C215.499621,276.640196 206.58752,283.750738 196.32,283.71 L158.82,283.71 C158.416231,283.712949 158.038988,283.509238 157.82,283.17 C157.600675,282.828506 157.570519,282.398779 157.74,282.03 L157.74,282.03 Z M277.99,323.91 L277.99,335.45 C273.228938,329.886434 266.272635,326.683618 258.95,326.683618 C251.627365,326.683618 244.671062,329.886434 239.91,335.45 L239.91,323.91 L277.99,323.91 Z M233.91,320.91 L233.91,341.91 L211.57,341.91 L211.57,318.91 C211.750669,312.873806 216.696103,308.074178 222.735,308.074178 C228.773897,308.074178 233.719331,312.873806 233.9,318.91 L233.91,320.91 Z M205.58,335.45 C200.818938,329.886434 193.862635,326.683618 186.54,326.683618 C179.217365,326.683618 172.261062,329.886434 167.5,335.45 L167.5,323.91 L205.58,323.91 L205.58,335.45 Z M202.81,341.91 L170.25,341.91 C173.685423,336.194056 179.866106,332.697685 186.535,332.697685 C193.203894,332.697685 199.384577,336.194056 202.82,341.91 L202.81,341.91 Z M242.65,341.91 C246.084283,336.189333 252.267644,332.689361 258.94,332.689361 C265.612356,332.689361 271.795717,336.189333 275.23,341.91 L242.65,341.91 Z M286.25,315.48 C284.936443,317.054626 282.990577,317.963429 280.94,317.96 L239.86,317.96 C239.368327,308.866702 231.851581,301.745405 222.745,301.745405 C213.638419,301.745405 206.121673,308.866702 205.63,317.96 L164.49,317.96 C162.437332,317.960595 160.490333,317.049871 159.175107,315.473918 C157.859882,313.897965 157.312181,311.819444 157.68,309.8 L161.33,289.71 L185.03,289.71 L185.03,303.84 C185.03,304.668427 185.701573,305.34 186.53,305.34 C187.358427,305.34 188.03,304.668427 188.03,303.84 L188.03,289.71 L196.32,289.71 C208.24791,289.760228 218.878518,282.195677 222.74,270.91 C226.581684,282.217366 237.217934,289.806061 249.16,289.76 L257.45,289.76 L257.45,294.64 C257.45,295.468427 258.121573,296.14 258.95,296.14 C259.778427,296.14 260.45,295.468427 260.45,294.64 L260.45,289.71 L284.11,289.71 L287.74,309.8 C288.116708,311.819245 287.57419,313.901341 286.26,315.48 L286.25,315.48 Z M287.65,283.18 C287.431012,283.519238 287.053769,283.722949 286.65,283.72 L284.44,283.72 L279.79,272.72 C279.595196,272.205908 279.134766,271.839574 278.590047,271.765274 C278.045328,271.690975 277.503608,271.920618 277.178238,272.363759 C276.852869,272.8069 276.795989,273.392528 277.03,273.89 L281.19,283.72 L278.02,283.72 L275.92,279.14 C275.574822,278.386131 274.683869,278.054822 273.93,278.4 C273.176131,278.745178 272.844822,279.636131 273.19,280.39 L274.74,283.71 L249.16,283.71 C238.895482,283.751776 229.984416,276.64622 227.74,266.63 L226.49,261.13 L278.99,261.13 L287.77,282.03 C287.930631,282.403818 287.889142,282.833792 287.66,283.17 L287.65,283.18 Z M289.06,206.51 C288.010302,205.229366 286.121519,205.041383 284.84,206.09 L279.08,210.81 C278.384208,211.379428 277.980491,212.230904 277.98,213.13 L277.98,240.79 L225.74,240.79 L225.74,195.49 C236.2281,194.480574 245.473053,188.181484 250.25,178.79 L262.59,178.79 C266.886257,178.79326 271.125644,177.807834 274.98,175.91 C278.268049,176.565325 281.460034,177.6338 284.48,179.09 L284.48,179.09 C290.98076,182.373239 296.800169,186.859104 301.63,192.31 L292.05,200.16 C290.824834,201.224327 290.668191,203.069989 291.696466,204.325567 C292.724741,205.581144 294.565072,205.791354 295.85,204.8 L305.56,196.8 C306.56,198.06 307.56,199.35 308.61,200.73 C309.174197,201.519514 309.015394,202.613491 308.25,203.21 L283.97,222.21 L283.97,214.46 L288.63,210.64 C289.859979,209.603821 290.054065,207.782058 289.07,206.51 L289.06,206.51 Z M292.52,223.23 L306.74,212.1 C308.70652,213.530933 310.957174,214.523267 313.34,215.01 C312.901096,216.092397 312.566252,217.214125 312.34,218.36 C312.222195,219.152225 312.747573,219.897243 313.533363,220.052262 C314.319154,220.207282 315.08811,219.717609 315.28,218.94 C315.524112,217.741753 315.910168,216.57687 316.43,215.47 C317.2,215.54 317.98,215.57 318.75,215.57 C319.933095,215.569401 321.115132,215.49928 322.29,215.36 C321.571098,219.437814 322.666621,223.626366 325.29,226.83 C316.19,230.74 302.07,230.11 292.53,223.22 L292.52,223.23 Z M328.14,249.23 L329.04,248.61 C332.444723,246.273428 334.479619,242.409371 334.48,238.28 L334.48,232.08 C335.142447,232.175723 335.810686,232.225841 336.48,232.23 L338.93,232.23 L338.93,238.29 C338.930381,242.419371 340.965277,246.283428 344.37,248.62 L345.27,249.24 L328.14,249.23 Z" id="Shape" fill="#324454"></path>
                    <path d="M333.94,173.91 C334.0177,174.091307 334.111404,174.265329 334.22,174.43 C334.326805,174.592859 334.450855,174.743731 334.59,174.88 C334.729763,175.022251 334.883924,175.149601 335.05,175.26 C335.20877,175.369776 335.379957,175.460405 335.56,175.53 C335.741841,175.6111 335.933443,175.668244 336.13,175.7 C336.320784,175.739708 336.515127,175.759812 336.71,175.76 C337.855667,175.766401 338.904947,175.11973 339.414158,174.093427 C339.923369,173.067125 339.803589,171.840411 339.105466,170.931997 C338.407343,170.023582 337.252789,169.5921 336.13,169.82 C335.93588,169.861805 335.745306,169.918643 335.56,169.99 C335.381899,170.067752 335.211202,170.161468 335.05,170.27 C334.884187,170.37696 334.730015,170.500968 334.59,170.64 C334.02723,171.202069 333.7107,171.964619 333.71,172.76 C333.709573,172.958211 333.72968,173.155933 333.77,173.35 C333.810934,173.541085 333.867799,173.728407 333.94,173.91 Z" id="Shape" fill="#324454"></path>
                    <path d="M325.74,175.79 C325.938166,175.789535 326.135798,175.769437 326.33,175.73 C326.523324,175.69818 326.711612,175.641021 326.89,175.56 C327.072299,175.488433 327.246586,175.397938 327.41,175.29 C327.906308,174.963315 328.290291,174.492063 328.51,173.94 C328.590078,173.761258 328.647199,173.573094 328.68,173.38 C328.759489,172.99405 328.759489,172.59595 328.68,172.21 C328.64741,172.016856 328.590281,171.828666 328.51,171.65 C328.43589,171.468868 328.34552,171.294823 328.24,171.13 C328.129836,170.963749 328.002467,170.809565 327.86,170.67 C327.152741,169.964043 326.1404,169.656591 325.16,169.85 C324.96588,169.891805 324.775306,169.948643 324.59,170.02 C324.411899,170.097752 324.241202,170.191468 324.08,170.3 C323.914187,170.40696 323.760015,170.530968 323.62,170.67 C323.480746,170.809817 323.356719,170.964013 323.25,171.13 C323.14122,171.294561 323.047507,171.468599 322.97,171.65 C322.89762,171.831531 322.84075,172.018867 322.8,172.21 C322.760223,172.400774 322.740118,172.595124 322.74,172.79 C322.74,174.446854 324.083146,175.79 325.74,175.79 L325.74,175.79 Z" id="Shape" fill="#324454"></path>
                    <path d="M209.09,205.37 C209.169405,205.55048 209.263033,205.724361 209.37,205.89 C209.479028,206.051212 209.602902,206.201868 209.74,206.34 C210.030094,206.616864 210.369208,206.837288 210.74,206.99 C210.921899,207.061324 211.109148,207.118168 211.3,207.16 C211.494067,207.20032 211.691789,207.220427 211.89,207.22 C212.681914,207.216656 213.440383,206.900328 214,206.34 C214.140026,206.20181 214.267214,206.051192 214.38,205.89 C214.487207,205.726157 214.577662,205.551947 214.65,205.37 C214.729921,205.190333 214.790268,205.002585 214.83,204.81 C214.869437,204.615798 214.889535,204.418166 214.89,204.22 C214.889535,204.021834 214.869437,203.824202 214.83,203.63 C214.790194,203.437435 214.729849,203.249694 214.65,203.07 C214.577786,202.887996 214.487324,202.713774 214.38,202.55 C214.266957,202.389006 214.139787,202.23841 214,202.1 C212.80762,200.982359 210.95238,200.982359 209.76,202.1 C209.623115,202.238325 209.499259,202.388961 209.39,202.55 C209.170573,202.876978 209.017666,203.243955 208.94,203.63 C208.900563,203.824202 208.880465,204.021834 208.88,204.22 C208.880465,204.418166 208.900563,204.615798 208.94,204.81 C208.975196,205.000321 209.025351,205.187568 209.09,205.37 Z" id="Shape" fill="#324454"></path>
                    <path d="M149.91,204.58 C150.702888,204.576588 151.463282,204.264539 152.03,203.71 C152.30742,203.420346 152.527916,203.081122 152.68,202.71 C152.75194,202.528315 152.808799,202.341016 152.85,202.15 C152.890249,201.955922 152.910356,201.758207 152.91,201.56 C152.9093,200.764619 152.59277,200.002069 152.03,199.44 C151.887455,199.303824 151.733565,199.180043 151.57,199.07 C151.409,198.95801 151.234224,198.867261 151.05,198.8 C150.870145,198.720574 150.68245,198.660243 150.49,198.62 C149.610223,198.446638 148.699023,198.675908 148.006056,199.244993 C147.313089,199.814078 146.911016,200.663306 146.91,201.56 C146.91,203.216854 148.253146,204.56 149.91,204.56 L149.91,204.58 Z" id="Shape" fill="#324454"></path>
                    <path d="M209.09,218.77 C209.165073,218.952562 209.258911,219.126831 209.37,219.29 C209.476407,219.456211 209.60046,219.610439 209.74,219.75 C209.881828,219.886991 210.035792,220.010832 210.2,220.12 C210.364671,220.228596 210.538693,220.3223 210.72,220.4 C210.901899,220.471324 211.089148,220.528168 211.28,220.57 C211.474067,220.61032 211.671789,220.630427 211.87,220.63 C212.661914,220.626656 213.420383,220.310328 213.98,219.75 C214.122467,219.610435 214.249836,219.456251 214.36,219.29 C214.471251,219.128555 214.56195,218.953876 214.63,218.77 C214.709994,218.590361 214.770344,218.402605 214.81,218.21 C214.890625,217.824167 214.890625,217.425833 214.81,217.04 C214.77012,216.847454 214.709777,216.659722 214.63,216.48 C214.559726,216.297117 214.469159,216.122693 214.36,215.96 C214.249686,215.796921 214.122299,215.646069 213.98,215.51 C212.78762,214.392359 210.93238,214.392359 209.74,215.51 C209.600622,215.646055 209.476551,215.796953 209.37,215.96 C209.261031,216.124448 209.167308,216.298504 209.09,216.48 C209.018676,216.661899 208.961832,216.849148 208.92,217.04 C208.840511,217.42595 208.840511,217.82405 208.92,218.21 C208.961628,218.400905 209.018476,218.58817 209.09,218.77 L209.09,218.77 Z" id="Shape" fill="#324454"></path>
                    <path d="M209.09,232.18 C209.167156,232.361569 209.260886,232.535639 209.37,232.7 C209.476742,232.862906 209.600797,233.013784 209.74,233.15 C209.881654,233.290176 210.035605,233.417353 210.2,233.53 C210.362693,233.639159 210.537117,233.729726 210.72,233.8 C210.898388,233.881021 211.086676,233.93818 211.28,233.97 C211.474067,234.01032 211.671789,234.030427 211.87,234.03 C212.661914,234.026656 213.420383,233.710328 213.98,233.15 C214.546439,232.589572 214.866652,231.82682 214.87,231.03 C214.869882,230.835124 214.849777,230.640774 214.81,230.45 C214.77012,230.257454 214.709777,230.069722 214.63,229.89 C214.561761,229.706208 214.471074,229.531551 214.36,229.37 C214.249836,229.203749 214.122467,229.049565 213.98,228.91 C212.78568,227.797275 210.93432,227.797275 209.74,228.91 C209.60046,229.049561 209.476407,229.203789 209.37,229.37 C209.259033,229.533243 209.165203,229.707499 209.09,229.89 C209.018676,230.071899 208.961832,230.259148 208.92,230.45 C208.880223,230.640774 208.860118,230.835124 208.86,231.03 C208.859644,231.228207 208.879751,231.425922 208.92,231.62 C208.961792,231.810862 209.018636,231.998115 209.09,232.18 L209.09,232.18 Z" id="Shape" fill="#324454"></path>
                    <path d="M347.74,175.79 C349.396854,175.79 350.74,174.446854 350.74,172.79 C350.739882,172.595124 350.719777,172.400774 350.68,172.21 C350.64741,172.016856 350.590281,171.828666 350.51,171.65 C350.43589,171.468868 350.34552,171.294823 350.24,171.13 C350.129836,170.963749 350.002467,170.809565 349.86,170.67 C348.66377,169.56214 346.81623,169.56214 345.62,170.67 C345.480746,170.809817 345.356719,170.964013 345.25,171.13 C345.14122,171.294561 345.047507,171.468599 344.97,171.65 C344.89762,171.831531 344.84075,172.018867 344.8,172.21 C344.760223,172.400774 344.740118,172.595124 344.74,172.79 C344.74,174.446854 346.083146,175.79 347.74,175.79 L347.74,175.79 Z" id="Shape" fill="#324454"></path>
                    <path d="M188.03,158.24 C187.201573,158.24 186.53,158.911573 186.53,159.74 L186.53,167.46 C186.53,168.288427 187.201573,168.96 188.03,168.96 C188.858427,168.96 189.53,168.288427 189.53,167.46 L189.53,159.74 C189.53,158.911573 188.858427,158.24 188.03,158.24 Z" id="Shape" fill="#324454"></path>
                    <path d="M270.99,168.91 C271.818427,168.91 272.49,168.238427 272.49,167.41 L272.49,159.69 C272.49,158.861573 271.818427,158.19 270.99,158.19 C270.161573,158.19 269.49,158.861573 269.49,159.69 L269.49,167.41 C269.49,168.238427 270.161573,168.91 270.99,168.91 Z" id="Shape" fill="#324454"></path>
                    <path d="M246.38,151.1 C245.551573,151.1 244.88,151.771573 244.88,152.6 L244.88,162.75 C244.88,163.578427 245.551573,164.25 246.38,164.25 C247.208427,164.25 247.88,163.578427 247.88,162.75 L247.88,152.6 C247.88,151.771573 247.208427,151.1 246.38,151.1 L246.38,151.1 Z" id="Shape" fill="#324454"></path>
                    <path d="M207.49,157.21 C206.661573,157.21 205.99,157.881573 205.99,158.71 L205.99,165.06 C205.99,165.888427 206.661573,166.56 207.49,166.56 C208.318427,166.56 208.99,165.888427 208.99,165.06 L208.99,158.71 C208.99,157.881573 208.318427,157.21 207.49,157.21 L207.49,157.21 Z" id="Shape" fill="#324454"></path>
                    <path d="M227.41,249.46 L218.08,249.46 C217.251573,249.46 216.58,250.131573 216.58,250.96 C216.58,251.788427 217.251573,252.46 218.08,252.46 L227.41,252.46 C228.238427,252.46 228.91,251.788427 228.91,250.96 C228.91,250.131573 228.238427,249.46 227.41,249.46 L227.41,249.46 Z" id="Shape" fill="#324454"></path>
                    <path d="M187.36,308.46 L187.1,308.32 L186.82,308.24 C186.061619,308.088474 185.312345,308.538372 185.089644,309.278984 C184.866942,310.019596 185.243821,310.808127 185.96,311.1 C186.325812,311.246854 186.734188,311.246854 187.1,311.1 C187.564726,310.909416 187.903217,310.498878 188.001723,310.006345 C188.10023,309.513812 187.945676,309.004664 187.59,308.65 C187.51817,308.581029 187.44129,308.517519 187.36,308.46 Z" id="Shape" fill="#324454"></path>
                    <path d="M258.95,299.71 C258.121573,299.71 257.45,300.381573 257.45,301.21 L257.45,309.71 C257.45,310.538427 258.121573,311.21 258.95,311.21 C259.778427,311.21 260.45,310.538427 260.45,309.71 L260.45,301.21 C260.45,300.381573 259.778427,299.71 258.95,299.71 L258.95,299.71 Z" id="Shape" fill="#324454"></path>
                    <path d="M213.84,19.91 C220.925821,19.8814211 227.816532,22.2299671 233.41,26.58 C234.058935,27.0963862 235.003614,26.9889346 235.52,26.34 C236.036386,25.6910654 235.928935,24.7463862 235.28,24.23 C229.173482,19.4658473 221.645078,16.8883022 213.9,16.91 C213.075796,16.9041321 212.397092,17.5562207 212.37,18.38 C212.361963,18.7778475 212.512342,19.1625848 212.788037,19.4495331 C213.063732,19.7364813 213.442149,19.9021226 213.84,19.91 L213.84,19.91 Z" id="Shape" fill="#324454"></path>
                    <path d="M173.74,81.46 L173.93,81.46 C180.03,80.68 183.8,77.99 185.44,73.22 C185.716142,72.4357557 185.304244,71.5761424 184.52,71.3 C183.735756,71.0238576 182.876142,71.4357557 182.6,72.22 C181.35,75.85 178.47,77.83 173.54,78.46 C172.711573,78.5124671 172.082533,79.2265729 172.135,80.055 C172.187467,80.8834271 172.901573,81.5124671 173.73,81.46 L173.74,81.46 Z" id="Shape" fill="#324454"></path>
                    <path d="M295.87,108.4 L296.4,108.54 L296.55,108.54 C298.001262,108.622766 299.321647,109.406045 300.09,110.64 C300.6081,111.803375 300.541258,113.143934 299.91,114.25 C299.665273,114.72695 299.693585,115.298229 299.984272,115.748644 C300.274959,116.199059 300.783859,116.460179 301.319273,116.433644 C301.854687,116.407109 302.335273,116.09695 302.58,115.62 C303.6521,113.658255 303.722701,111.302425 302.77,109.28 C302.07,107.9 300.51,106.14 297.1,105.58 L296.64,105.46 C291.64,104.15 288.33,103.29 285.96,97.83 C285.628629,97.0706085 284.744392,96.7236292 283.985,97.055 C283.225608,97.3863708 282.878629,98.2706085 283.21,99.03 C286.15,105.85 290.65,107.03 295.87,108.4 Z" id="Shape" fill="#324454"></path>
                    <path d="M149.24,110.91 C148.411573,110.91 147.74,111.581573 147.74,112.41 L147.74,127.18 C147.74,128.008427 148.411573,128.68 149.24,128.68 C150.068427,128.68 150.74,128.008427 150.74,127.18 L150.74,112.36 C150.713024,111.551162 150.049287,110.90955 149.24,110.91 Z" id="Shape" fill="#324454"></path>
                    <path d="M342.55,189.58 C342.748904,189.584369 342.946507,189.546893 343.13,189.47 C343.313067,189.398035 343.477252,189.285157 343.61,189.14 C343.87799,188.8744 344.035237,188.51702 344.05,188.14 C344.059638,188.040232 344.059638,187.939768 344.05,187.84 C344.05,187.75 344,187.65 343.97,187.56 C343.929209,187.470296 343.882437,187.383433 343.83,187.3 C343.772043,187.219046 343.708558,187.142196 343.64,187.07 C343.572556,186.999067 343.495063,186.938421 343.41,186.89 C343.332261,186.833979 343.248386,186.787009 343.16,186.75 C342.886517,186.629872 342.582282,186.598399 342.29,186.66 C342.193519,186.679142 342.099565,186.709341 342.01,186.75 C341.918334,186.786718 341.831113,186.833683 341.75,186.89 C341.666767,186.9411 341.589605,187.001487 341.52,187.07 C341.239842,187.355925 341.082026,187.739703 341.08,188.14 C341.094763,188.51702 341.25201,188.8744 341.52,189.14 C341.791185,189.417766 342.161825,189.576098 342.55,189.58 Z" id="Shape" fill="#324454"></path>
                    <path d="M316.18,343.76 C316.100226,343.579701 316.006613,343.405848 315.9,343.24 C315.790696,343.078995 315.666843,342.928363 315.53,342.79 C315.392829,342.647821 315.238277,342.523507 315.07,342.42 C314.905639,342.310886 314.731569,342.217156 314.55,342.14 C314.369834,342.063788 314.182128,342.006806 313.99,341.97 C313.604108,341.889947 313.205892,341.889947 312.82,341.97 C312.62789,342.006878 312.440191,342.063858 312.26,342.14 C312.078504,342.217308 311.904448,342.311031 311.74,342.42 C311.574731,342.523493 311.423485,342.64785 311.29,342.79 C311.149974,342.92819 311.022786,343.078808 310.91,343.24 C310.802435,343.403633 310.711961,343.57788 310.64,343.76 C310.559407,343.938549 310.502266,344.12678 310.47,344.32 C310.227962,345.511963 310.729569,346.732108 311.739977,347.409185 C312.750386,348.086262 314.069614,348.086262 315.080023,347.409185 C316.090431,346.732108 316.592038,345.511963 316.35,344.32 C316.308625,344.129029 316.251771,343.941744 316.18,343.76 L316.18,343.76 Z" id="Shape" fill="#324454"></path>
                    <path d="M4.67,343.08 C4.50748168,342.970546 4.33302364,342.879962 4.15,342.81 C3.97145059,342.729407 3.78322,342.672266 3.59,342.64 C3.20410802,342.559947 2.80589198,342.559947 2.42,342.64 C2.22678,342.672266 2.03854941,342.729407 1.86,342.81 C1.67690462,342.879802 1.50242882,342.970395 1.34,343.08 C1.17392389,343.190399 1.01976347,343.317749 0.88,343.46 C0.31723005,344.022069 0.000700208159,344.784619 -2.84217094e-14,345.58 C0.000664894819,345.774847 0.0207643991,345.969143 0.06,346.16 C0.101331855,346.350982 0.158187388,346.538271 0.23,346.72 C0.305007929,346.902593 0.398848538,347.076869 0.51,347.24 C0.62004271,347.403565 0.74382387,347.557455 0.88,347.7 C1.44290562,348.264864 2.20754557,348.582366 3.005,348.582366 C3.80245443,348.582366 4.56709438,348.264864 5.13,347.7 C5.26617613,347.557455 5.38995729,347.403565 5.5,347.24 C5.61152209,347.078718 5.70223917,346.904004 5.77,346.72 C5.84902116,346.539991 5.90933787,346.352339 5.95,346.16 C5.98490402,345.9685 6.00496368,345.77459 6.01,345.58 C6.00286442,344.785918 5.68730632,344.02571 5.13,343.46 C4.98834627,343.319824 4.83439513,343.192647 4.67,343.08 L4.67,343.08 Z" id="Shape" fill="#324454"></path>
                    <path d="M146.18,341.91 L146.18,341.91 L13.01,342.58 C11.3531458,342.58 10.01,343.923146 10.01,345.58 C10.01,347.236854 11.3531458,348.58 13.01,348.58 L13.01,348.58 L146.19,347.91 C147.846854,347.91 149.19,346.566854 149.19,344.91 C149.19,343.253146 147.846854,341.91 146.19,341.91 L146.18,341.91 Z" id="Shape" fill="#324454"></path>
                    <path d="M442.48,341.91 L323.41,341.91 C321.753146,341.91 320.41,343.253146 320.41,344.91 C320.41,346.566854 321.753146,347.91 323.41,347.91 L442.48,347.91 C444.136854,347.91 445.48,346.566854 445.48,344.91 C445.48,343.253146 444.136854,341.91 442.48,341.91 Z" id="Shape" fill="#324454"></path>
                </g>
            </g>
        </g>
    </g>
</svg>